<?xml version="1.0" encoding="utf-8"?>
<!-- Generator: Adobe Illustrator 16.0.2, SVG Export Plug-In . SVG Version: 6.00 Build 0)  -->
<!DOCTYPE svg PUBLIC "-//W3C//DTD SVG 1.1//EN" "http://www.w3.org/Graphics/SVG/1.1/DTD/svg11.dtd">
<svg version="1.1" id="Layer_1" xmlns="http://www.w3.org/2000/svg" xmlns:xlink="http://www.w3.org/1999/xlink" x="0px" y="0px"
	 width="378px" height="92px" viewBox="0 0 378 92" enable-background="new 0 0 378 92" xml:space="preserve">
<rect y="0.749" width="378" height="90.874"/>
<g>
	<defs>
		<rect id="SVGID_1_" width="378.858" height="92.368"/>
	</defs>
	<clipPath id="SVGID_2_">
		<use xlink:href="#SVGID_1_"  overflow="visible"/>
	</clipPath>
	<path clip-path="url(#SVGID_2_)" fill-rule="evenodd" clip-rule="evenodd" fill="#FFCC00" d="M30.414,20.728h2.492
		c0.674-0.472,1.316-0.907,1.99-1.346h-5.224c-4.687,0-8.498,3.844-8.498,8.496v1.412c0.542-0.467,1.079-0.907,1.617-1.346
		C23.095,23.797,26.132,20.728,30.414,20.728 M65.574,16.246C58.328,31.92,49.123,55.655,34.053,60.947
		c-4.249,1.517-8.024,1.922-11.8,1.854c-10.89-0.169-18.304-5.967-14.629-14.634c4.887-11.593,23.127-24.469,33.744-31.922
		c-6.439,5.395-27.139,21.101-29.057,30.774c-1.348,6.717,3.607,11.131,11.6,11.74C45.147,60.273,56.337,32.967,65.574,16.246
		 M30.414,74.67c-4.486,0-7.655-3.302-7.655-7.788v-1.95l-1.585-0.04v2.732c0,4.69,3.812,8.494,8.498,8.494h39.742
		c4.659,0,8.499-3.804,8.499-8.494V27.878c0-4.352-3.334-7.993-7.583-8.464c-2.159,4.787-4.891,9.578-5.597,14.836
		c-1.011,8.867,7.655,13.486,7.957,18.942c0.337,6.107-7.387,14.802-10.89,21.479h-3.407c5.228-8.831,9.979-15.371,10.99-19.624
		c0.979-4.277-5.393-9.973-7.279-15.033c-2.259-6.979,2.022-12.88,6.809-23.767c-4.787,8.159-9.642,15.137-9.609,22.15
		c-0.269,4.65,7.351,11.161,7.587,15.374c0.232,4.213-7.178,12.475-12.711,20.9H30.414z"/>
	<path clip-path="url(#SVGID_2_)" fill-rule="evenodd" clip-rule="evenodd" fill="#FFCC00" d="M363.9,19.781
		c4.562,0,8.281,3.718,8.281,8.28c0,4.556-3.72,8.273-8.281,8.273c-4.554,0-8.273-3.718-8.273-8.273
		C355.627,23.499,359.347,19.781,363.9,19.781 M363.9,21.043c3.868,0,7.014,3.149,7.014,7.018c0,3.862-3.146,7.014-7.014,7.014
		c-3.86,0-7.014-3.152-7.014-7.014C356.887,24.192,360.04,21.043,363.9,21.043 M360.458,32.077v-8.57h3.643
		c1.714,0,3.371,0.317,3.371,2.399c0,1.415-0.923,2.199-2.264,2.387c0.373,0.219,0.687,0.461,0.927,0.72
		c0.787,0.847,1.417,2.079,2.03,3.063h-2.066c-0.666-0.993-1.355-2.263-2.166-3.125c-0.165-0.172-0.333-0.287-0.521-0.357
		c-0.369-0.128-0.823-0.095-1.22-0.095v3.577H360.458z M362.146,26.881c0.815,0,2.091,0.14,2.825-0.106
		c0.445-0.152,0.654-0.543,0.654-1.003c0-0.568-0.325-0.937-0.879-1.031c-0.822-0.103-1.762-0.026-2.601-0.026V26.881z
		 M303.201,37.377c6.994,0,11.379,6.017,9.767,13.392c-1.621,7.37-8.639,13.385-15.633,13.385c-6.989,0-11.375-6.015-9.762-13.385
		C289.19,43.394,296.208,37.377,303.201,37.377 M300.638,46.796c-1.412,0.305-2.363,1.248-2.825,2.11
		c-0.746,1.404-1.203,2.736-2.054,4.081c2.588-0.935,7.595-2.308,8.061-3.278C304.742,47.799,302.202,46.459,300.638,46.796
		 M182.75,36.177c1.709-3.027,3.768-7.621,7.298-7.708c5.032-0.126,4.627,3.699,3.006,4.532c-1.834,0.941-4.025,0.708-5.614,1.234
		C185.567,34.859,184.548,35.259,182.75,36.177 M122.979,37.321c-0.955,4.187-4.69,6.434-8.346,8.049
		c4.69-0.066,7.278,6.747,5.196,10.455c-2.696,4.807-8.037,7.663-13.542,7.663H86.266l7.968-35.696h18.425
		C118.481,27.792,124.411,31.05,122.979,37.321 M182.137,46.989l-1.336,6.075c-0.277,2.335,0.931,2.776,4.004,2.776h7.651
		l-1.705,7.56h-12.45c-6.103,0-8.245-3.451-7.375-8.201l1.837-7.961c1.083-5.89,4.281-9.618,10.613-9.618h13.149l-1.569,7.002
		l-7.042-0.054C185.114,44.547,182.831,43.853,182.137,46.989 M237.021,48.104c-0.558,2.455-3.174,5.456-5.524,5.456h-7.772
		c-1.111,0-2.387,0.939-2.925,1.485c0.276-2.224,2.82-5.613,5.726-5.613h6.251C233.908,49.433,236.319,48.923,237.021,48.104
		 M157.662,46.467c-1.409,0.305-2.359,1.244-2.821,2.106c-0.75,1.408-1.208,2.736-2.059,4.085c2.592-0.935,7.596-2.315,8.065-3.282
		C161.762,47.47,159.23,46.13,157.662,46.467 M158.532,38.509c-1.107-0.963-2.845-0.889-4-0.889c-3.27,0-6.681,1.451-7.435,4.857
		l-3.35,15.009c-1.104,4.951,1.448,6.002,4.329,6.002c2.925,0,7.11-1.452,9.55-3.671l-0.787,3.583h10.023l5.561-25.34h-10.027
		l-0.702,3.206L158.532,38.509z M337.672,37.62c-4.502,0-7.175,0.49-11.015,2.955l0.55-2.516h-10.026l-5.554,25.34h10.02
		l2.64-12.021c0.867-2.439,2.283-4.141,4.522-5.035l-0.173-0.06c2.841-0.857,4.169-0.921,7.271-0.538L337.672,37.62z M98.106,57.004
		c1.713-3.034,3.771-7.624,7.294-7.712c5.04-0.129,4.626,3.699,3.013,4.529c-1.841,0.943-4.032,0.707-5.617,1.236
		C100.918,55.68,99.904,56.076,98.106,57.004 M101.428,42.34c1.713-3.031,3.771-7.622,7.303-7.708
		c5.031-0.126,4.622,3.699,3.005,4.528c-1.837,0.945-4.028,0.712-5.617,1.238C104.241,41.022,103.23,41.421,101.428,42.34
		 M208.698,38.509c-1.107-0.963-2.841-0.889-3.996-0.889c-3.274,0-6.681,1.451-7.438,4.857l-3.351,15.009
		c-1.104,4.951,1.448,6.002,4.329,6.002c2.929,0,7.114-1.452,9.55-3.671l-0.782,3.583h10.022l5.557-25.34h-10.026l-0.702,3.206
		L208.698,38.509z M207.828,46.467c-1.408,0.305-2.359,1.244-2.821,2.106c-0.75,1.408-1.203,2.736-2.054,4.085
		c2.588-0.935,7.591-2.315,8.061-3.282C211.937,47.47,209.396,46.13,207.828,46.467 M146.146,37.62c-4.498,0-7.17,0.49-11.014,2.955
		l0.55-2.516h-10.019l-5.562,25.34h10.027l2.636-12.021c0.863-2.439,2.283-4.141,4.526-5.035l-0.172-0.06
		c2.833-0.857,4.161-0.921,7.267-0.538L146.146,37.62z M344.132,63.399c-4.694,0-9.521-4.767-8.391-9.839l5.59-25.344h10.026
		l-2.162,9.842h7.271l-1.533,7.001h-7.274l-1.857,8.5c-0.329,1.501,0.369,2.516,1.777,2.439h4.955l-1.625,7.399H344.132z
		 M276.459,46.796c-1.404,0.305-2.355,1.248-2.816,2.11c-0.75,1.404-1.208,2.736-2.055,4.081c2.588-0.935,7.592-2.308,8.062-3.278
		C280.563,47.799,278.032,46.459,276.459,46.796 M273.057,62.878c1.107,0.963,2.841,0.887,3.996,0.887
		c3.271,0,6.681-1.457,7.439-4.859l3.35-15.006c1.1-4.951-3.109-6.335-5.99-6.335c-2.54,0-4.778,1.346-6.917,3.152
		c0.321-1.352,0.525-2.163,0.63-2.656h-10.022l-8.675,38.059h10.026c1.34-6.123,2.483-11.267,3.459-15.6L273.057,62.878z
		 M254.459,49.433c9.39,0,7.183,13.967-5.95,13.967h-13.044l1.709-7.19h11.54c4.538,0.152,6.083-4.418,1.729-4.418h-7.455
		c-6.673,0-6.34-13.732,7.402-13.732h12.378l-1.705,7.19h-10.877c-3.969,0-5.181,4.183-2.243,4.183H254.459z"/>
</g>
</svg>
