<?xml version="1.0" encoding="utf-8"?>
<!-- Generator: Adobe Illustrator 16.0.2, SVG Export Plug-In . SVG Version: 6.00 Build 0)  -->
<!DOCTYPE svg PUBLIC "-//W3C//DTD SVG 1.1//EN" "http://www.w3.org/Graphics/SVG/1.1/DTD/svg11.dtd">
<svg version="1.1" id="Layer_1" xmlns="http://www.w3.org/2000/svg" xmlns:xlink="http://www.w3.org/1999/xlink" x="0px" y="0px"
	 width="448px" height="74px" viewBox="0 0 448 74" enable-background="new 0 0 448 74" xml:space="preserve">
<polygon fill="#101B88" points="33.864,12.585 33.864,2.885 3.325,2.885 3.325,49.621 33.864,49.621 33.864,39.953 14.036,39.953 
	14.036,30.929 33.864,30.929 33.864,21.256 14.036,21.256 14.036,12.585 "/>
<g>
	<defs>
		<rect id="SVGID_1_" x="-16.004" y="-16.452" width="480.493" height="107.452"/>
	</defs>
	<clipPath id="SVGID_2_">
		<use xlink:href="#SVGID_1_"  overflow="visible"/>
	</clipPath>
	<path clip-path="url(#SVGID_2_)" fill="#101B88" d="M70.514,2.885v26.702c0,6.928-3.388,10.742-9.535,10.742
		c-6.232,0-9.664-3.916-9.664-11.02V2.885H40.514V29.52c0,13.443,7.197,20.848,20.269,20.848c13.07,0,20.564-7.709,20.564-21.14
		V2.885H70.514z"/>
	<path clip-path="url(#SVGID_2_)" fill="#101B88" d="M117.102,33.019c6.225-2.483,9.644-7.604,9.644-14.464v-0.139
		c0-4.46-1.391-8.167-4.024-10.718c-3.186-3.195-7.773-4.816-13.637-4.816h-21.41v46.739h10.808V34.896h7.457l9.852,14.725h12.667
		L117.102,33.019z M98.483,12.728h9.697c4.921,0,7.627,2.224,7.627,6.252v0.114c0,3.785-2.816,6.134-7.364,6.134h-9.961V12.728z"/>
	<polygon clip-path="url(#SVGID_2_)" fill="#101B88" points="253.859,2.885 242.093,34.649 230.328,3.104 230.238,2.885 
		218.367,2.885 237.251,49.949 246.631,49.949 265.527,2.885 	"/>
	<rect x="271.875" y="2.885" clip-path="url(#SVGID_2_)" fill="#101B88" width="10.814" height="46.736"/>
	<path clip-path="url(#SVGID_2_)" fill="#101B88" d="M310.621,21.39c-8.066-2.065-9.688-3.022-9.688-5.712v-0.146
		c0-2.275,2.15-3.688,5.614-3.688c3.563,0,7.417,1.473,11.774,4.5l0.284,0.194l5.583-8.175l-0.243-0.199
		c-4.903-3.952-10.712-5.952-17.269-5.952c-9.711,0-16.495,5.846-16.495,14.225v0.162c0,9.616,6.742,12.128,15.563,14.408
		c7.74,1.991,8.997,3.261,8.997,5.518v0.125c0,2.491-2.362,3.98-6.306,3.98c-4.705,0-8.997-1.757-13.518-5.526l-0.262-0.222
		l-6.441,7.716l0.243,0.219c5.332,4.805,12.359,7.444,19.789,7.444c10.641,0,17.255-5.602,17.255-14.633v-0.102
		C325.504,26.965,319.547,23.687,310.621,21.39"/>
	<rect x="329.975" y="2.885" clip-path="url(#SVGID_2_)" fill="#101B88" width="10.841" height="46.736"/>
	<path clip-path="url(#SVGID_2_)" fill="#101B88" d="M372.81,2.098c-13.956,0-24.887,10.618-24.887,24.169v0.159
		c0,13.679,10.641,23.99,24.759,23.99c13.957,0,24.89-10.606,24.89-24.149v-0.158C397.571,12.42,386.922,2.098,372.81,2.098
		 M359.201,26.109c0-7.957,5.796-13.957,13.48-13.957c7.757,0,13.615,6.065,13.615,14.115v0.159c0,7.959-5.802,13.961-13.487,13.961
		c-7.757,0-13.608-6.07-13.608-14.12V26.109z"/>
	<polygon clip-path="url(#SVGID_2_)" fill="#101B88" points="434.479,2.885 434.479,30.564 413.488,3.016 413.392,2.885 
		403.557,2.885 403.557,49.621 414.235,49.621 414.235,21.033 436.03,49.621 445.159,49.621 445.159,2.885 	"/>
	<path clip-path="url(#SVGID_2_)" fill="#101B88" d="M143.608,3.461c-6.661,5.035-10.642,13.547-10.642,22.761v0.199
		c0,9.25,3.981,17.758,10.642,22.762l0.545,0.407V3.047L143.608,3.461z"/>
	<path clip-path="url(#SVGID_2_)" fill="#101B88" d="M203.022,2.167l-0.462-0.178v11.02l0.101,0.102
		c3.518,3.449,5.458,8.106,5.458,13.117v0.11c0,4.977-1.94,9.635-5.458,13.115l-0.101,0.102v11.077l0.466-0.183
		c9.978-3.932,16.184-13.169,16.184-24.111v-0.151C219.21,15.224,213.003,6.021,203.022,2.167"/>
	<path clip-path="url(#SVGID_2_)" fill="#101B88" d="M195.902,14.229c-2.756-4.782-6.958-8.349-12.151-10.317
		c-3.019-1.176-6.224-1.768-9.527-1.768c-5.218,0-10.14,1.448-14.241,4.183c-6.65,4.376-10.622,11.843-10.622,19.961v0.134
		c0,8.257,3.87,15.545,10.63,19.999c4.211,2.686,8.967,4.052,14.136,4.052c3.391,0,6.722-0.628,9.624-1.821
		c5.193-2.031,9.391-5.64,12.151-10.436l0.041-0.074V14.306L195.902,14.229z M174.128,12.152c3.553,0,6.84,1.323,9.266,3.729
		c2.751,2.637,4.332,6.427,4.332,10.406v0.134c0,4.114-1.537,7.819-4.332,10.448c-2.386,2.304-5.644,3.575-9.17,3.575
		c-7.75,0-13.596-6.087-13.596-14.157v-0.113C160.628,18.181,166.427,12.152,174.128,12.152"/>
	<path clip-path="url(#SVGID_2_)" fill="#4D4D4D" d="M2.367,66.561v-0.033c0-2.824,2.126-5.306,5.247-5.306
		c3.124,0,5.217,2.449,5.217,5.281v0.024c0,2.832-2.122,5.307-5.246,5.307C4.461,71.834,2.367,69.393,2.367,66.561 M11.629,66.561
		v-0.033c0-2.328-1.699-4.235-4.044-4.235s-4.016,1.873-4.016,4.211v0.024c0,2.337,1.704,4.243,4.045,4.243
		C9.962,70.771,11.629,68.89,11.629,66.561"/>
	<path clip-path="url(#SVGID_2_)" fill="#4D4D4D" d="M15.281,61.397h3.839c2.316,0,3.842,1.235,3.842,3.256v0.032
		c0,2.205-1.851,3.351-4.033,3.351h-2.492v3.628h-1.157V61.397z M18.978,66.982c1.695,0,2.808-0.91,2.808-2.256v-0.025
		c0-1.469-1.095-2.232-2.751-2.232h-2.597v4.514H18.978z"/>
	<polygon clip-path="url(#SVGID_2_)" fill="#4D4D4D" points="25.072,61.397 32.488,61.397 32.488,62.454 26.232,62.454 
		26.232,65.959 31.831,65.959 31.831,67.016 26.232,67.016 26.232,70.608 32.562,70.608 32.562,71.664 25.072,71.664 	"/>
	<path clip-path="url(#SVGID_2_)" fill="#4D4D4D" d="M34.899,61.397h4.41c1.259,0,2.272,0.383,2.917,1.031
		c0.494,0.495,0.787,1.212,0.787,2.022v0.023c0,1.703-1.169,2.692-2.783,2.993l3.157,4.189h-1.429l-2.974-3.986h-2.934v3.986h-1.152
		V61.397z M39.206,66.634c1.539,0,2.638-0.786,2.638-2.11v-0.032c0-1.259-0.968-2.022-2.62-2.022h-3.173v4.165H39.206z"/>
	<path clip-path="url(#SVGID_2_)" fill="#4D4D4D" d="M49.29,61.326h1.083l4.682,10.338h-1.25L52.6,68.946h-5.582L45.8,71.664h-1.188
		L49.29,61.326z M52.15,67.891l-2.333-5.219l-2.349,5.219H52.15z"/>
	<polygon clip-path="url(#SVGID_2_)" fill="#4D4D4D" points="58.466,62.469 55.022,62.469 55.022,61.397 63.08,61.397 63.08,62.469 
		59.64,62.469 59.64,71.657 58.466,71.657 	"/>
	<polygon clip-path="url(#SVGID_2_)" fill="#4D4D4D" points="65.254,61.397 72.672,61.397 72.672,62.454 66.415,62.454 
		66.415,65.959 72.014,65.959 72.014,67.016 66.415,67.016 66.415,70.608 72.745,70.608 72.745,71.664 65.254,71.664 	"/>
	<path clip-path="url(#SVGID_2_)" fill="#4D4D4D" d="M75.073,61.397h3.563c3.228,0,5.453,2.216,5.453,5.105v0.024
		c0,2.887-2.225,5.13-5.453,5.13h-3.563V61.397z M76.233,62.469v8.123h2.403c2.596,0,4.251-1.761,4.251-4.031v-0.033
		c0-2.272-1.655-4.059-4.251-4.059H76.233z"/>
	<path clip-path="url(#SVGID_2_)" fill="#4D4D4D" d="M90.937,61.397h4.367c1.177,0,2.102,0.333,2.686,0.91
		c0.425,0.437,0.657,0.983,0.657,1.639v0.034c0,1.33-0.82,2.021-1.627,2.377c1.217,0.364,2.203,1.063,2.203,2.474v0.033
		c0,1.752-1.485,2.8-3.725,2.8h-4.561V61.397z M97.478,64.108c0-1.014-0.808-1.67-2.272-1.67h-3.124v3.538h3.035
		c1.392,0,2.361-0.634,2.361-1.835V64.108z M95.319,66.997h-3.237v3.619h3.44c1.558,0,2.525-0.681,2.525-1.833v-0.025
		C98.046,67.638,97.104,66.997,95.319,66.997"/>
	<polygon clip-path="url(#SVGID_2_)" fill="#4D4D4D" points="104.294,67.599 100.025,61.397 101.434,61.397 104.894,66.527 
		108.379,61.397 109.73,61.397 105.463,67.59 105.463,71.657 104.294,71.657 	"/>
	<polygon clip-path="url(#SVGID_2_)" fill="#4D4D4D" points="115.329,61.397 122.747,61.397 122.747,62.454 116.49,62.454 
		116.49,65.959 122.088,65.959 122.088,67.016 116.49,67.016 116.49,70.608 122.819,70.608 122.819,71.664 115.329,71.664 	"/>
	<path clip-path="url(#SVGID_2_)" fill="#4D4D4D" d="M124.832,61.397h4.366c1.176,0,2.093,0.333,2.682,0.91
		c0.426,0.437,0.662,0.983,0.662,1.639v0.034c0,1.33-0.824,2.021-1.631,2.377c1.218,0.364,2.203,1.063,2.203,2.474v0.033
		c0,1.752-1.48,2.8-3.728,2.8h-4.553V61.397z M131.368,64.108c0-1.014-0.807-1.67-2.272-1.67h-3.124v3.538h3.039
		c1.388,0,2.357-0.634,2.357-1.835V64.108z M129.214,66.997h-3.242v3.619h3.444c1.554,0,2.523-0.681,2.523-1.833v-0.025
		C131.939,67.638,130.998,66.997,129.214,66.997"/>
	<path clip-path="url(#SVGID_2_)" fill="#4D4D4D" d="M134.929,67.364v-5.967h1.157v5.892c0,2.216,1.192,3.457,3.141,3.457
		c1.891,0,3.091-1.134,3.091-3.382v-5.967h1.156v5.877c0,2.993-1.716,4.553-4.28,4.553
		C136.658,71.827,134.929,70.268,134.929,67.364"/>
</g>
</svg>
