<?xml version="1.0" encoding="utf-8"?>
<!-- Generator: Adobe Illustrator 16.0.2, SVG Export Plug-In . SVG Version: 6.00 Build 0)  -->
<!DOCTYPE svg PUBLIC "-//W3C//DTD SVG 1.1//EN" "http://www.w3.org/Graphics/SVG/1.1/DTD/svg11.dtd">
<svg version="1.1" id="Layer_1" xmlns="http://www.w3.org/2000/svg" xmlns:xlink="http://www.w3.org/1999/xlink" x="0px" y="0px"
	 width="533px" height="146px" viewBox="0 0 533 146" enable-background="new 0 0 533 146" xml:space="preserve">
<polygon fill="#FF0000" points="229.879,2.004 246.711,36.424 206.594,117.081 291.066,52.971 "/>
<g>
	<defs>
		<rect id="SVGID_1_" x="2.621" y="2.004" width="528.431" height="142.416"/>
	</defs>
	<clipPath id="SVGID_2_">
		<use xlink:href="#SVGID_1_"  overflow="visible"/>
	</clipPath>
	<path clip-path="url(#SVGID_2_)" d="M225.802,44.796v-4.029h-23.503v21.85h23.31v-8.818h-12.264v-4.149h16.993v13.736
		c0,0-0.133,1.279-1.274,2.428c-0.957,0.953-2.687,0.769-2.687,0.769h-24.339c0,0-1.564,0.088-3.192-1.541
		c-1.625-1.625-1.725-3.381-1.725-3.381V41.539c0,0-0.125-2.043,1.404-3.583c1.536-1.532,3.132-1.464,3.132-1.464h25.296
		c0,0,1.745-0.148,2.811,0.961c0.575,0.587,0.575,2.465,0.575,2.465v2.642L225.802,44.796z"/>
	<path clip-path="url(#SVGID_2_)" d="M318.176,45.178v-4.282h-21.271v8.05h21.331c0,0,2.228,0.245,3.257,1.279
		c1.038,1.033,1.279,3.39,1.279,3.39v8.685c0,0,0.313,1.154-1.403,2.875c-1.713,1.717-3.133,1.528-3.133,1.528h-21.331
		c0,0-2.751-0.061-4.089-1.275c-1.715-1.544-1.094-4.407-1.094-4.407l4.126-3.547v4.572h22.388v-8.432h-21.331
		c0,0-1.452-0.108-3.003-1.661c-1.557-1.556-1.408-3.008-1.408-3.008v-8.05c0,0,0.101-1.689,1.467-3.064
		c1.377-1.375,2.944-1.407,2.944-1.407h21.331c0,0,2.24,0.193,3.455,1.407c1.214,1.214,1.081,3.064,1.081,3.064v0.659
		L318.176,45.178z"/>
	<path clip-path="url(#SVGID_2_)" fill="#FFFFFF" d="M277.577,50.683v-9.019l-6.306-5.255l-24.54,0.016V66.63h5.484l0.101-11.97
		h21.577c0,0,1.607,0.064,2.718-1.045C277.729,52.496,277.577,50.683,277.577,50.683 M271.951,49.854
		c-0.463,0.463-1.263,0.632-1.263,0.632h-18.372v-9.59h18.372c0,0,0.458-0.033,0.973,0.478c0.511,0.507,0.677,1.118,0.677,1.118
		l0.052,6.007C272.39,48.499,272.409,49.396,271.951,49.854"/>
	<path clip-path="url(#SVGID_2_)" d="M2.616,135.603h7.455c1.351,0,1.926,0.481,1.926,1.709v1.979c0,1.223-0.595,1.688-1.926,1.688
		H4.285v3.449H2.616V135.603z M4.285,136.897v2.79h5.034c0.664,0,1.001-0.168,1.001-0.837v-1.121c0-0.684-0.338-0.832-1.001-0.832
		H4.285z"/>
	<polygon clip-path="url(#SVGID_2_)" points="30.333,135.606 39.22,135.606 39.22,136.914 32.001,136.914 32.001,139.185 
		36.349,139.185 36.349,140.496 32.001,140.496 32.001,143.134 39.3,143.134 39.3,144.428 30.333,144.428 	"/>
	<path clip-path="url(#SVGID_2_)" d="M57.519,135.603h7.097c1.291,0,1.858,0.481,1.858,1.709v1.979c0,1.206-0.567,1.688-1.858,1.688
		h-1.162l3.888,3.449h-2.224l-3.514-3.449h-2.413v3.449h-1.673V135.603z M59.192,136.897v2.851h4.7c0.724,0,0.933-0.189,0.933-0.897
		v-1.061c0-0.724-0.309-0.893-0.933-0.893H59.192z"/>
	<polygon clip-path="url(#SVGID_2_)" points="85.38,135.606 94.163,135.606 94.163,136.914 87.049,136.914 87.049,139.643 
		91.063,139.643 91.063,140.935 87.049,140.935 87.049,144.428 85.38,144.428 	"/>
	<path clip-path="url(#SVGID_2_)" d="M113.74,135.606h6.366c1.685,0,2.163,0.498,2.163,2.103v4.637c0,1.628-0.499,2.082-2.163,2.082
		h-6.366c-1.684,0-2.163-0.43-2.163-2.082v-4.637C111.578,136.104,112.056,135.606,113.74,135.606 M120.608,136.914h-7.366v6.18
		h7.366V136.914z"/>
	<path clip-path="url(#SVGID_2_)" d="M141.24,135.603h7.097c1.291,0,1.858,0.481,1.858,1.709v1.979c0,1.206-0.567,1.688-1.858,1.688
		h-1.166l3.892,3.449h-2.227l-3.515-3.449h-2.409v3.449h-1.672V135.603z M142.913,136.897v2.851h4.701
		c0.724,0,0.933-0.189,0.933-0.897v-1.061c0-0.724-0.31-0.893-0.933-0.893H142.913z"/>
	<path clip-path="url(#SVGID_2_)" d="M170.473,138.477v5.951h-1.367v-8.825h1.367l4.396,5.726l4.037-5.726h1.536v8.825h-1.536
		v-5.951c0-0.353,0.021-0.764,0.101-1.23c-0.209,0.612-0.414,1.021-0.583,1.23l-3.39,4.561h-0.434l-3.518-4.52
		c-0.273-0.334-0.483-0.768-0.647-1.271C170.453,137.834,170.473,138.248,170.473,138.477"/>
	<path clip-path="url(#SVGID_2_)" d="M203.309,135.606h1.516l5.22,8.821h-1.806l-1.146-2.059h-6.096l-1.122,2.059h-1.669
		L203.309,135.606z M206.385,141.099l-2.349-4.201l-2.332,4.201H206.385z"/>
	<path clip-path="url(#SVGID_2_)" d="M229.336,138.955v5.473h-1.544v-8.817h1.271l6.466,5.766c0.422,0.351,0.756,0.74,1.065,1.202
		c-0.104-0.563-0.145-1.104-0.145-1.644v-5.324h1.536v8.817h-1.142l-6.595-5.846c-0.395-0.357-0.748-0.729-1.042-1.203
		C229.292,137.897,229.336,138.438,229.336,138.955"/>
	<path clip-path="url(#SVGID_2_)" d="M258.629,136.914v6.18h6.156v-2.091l1.665,0.305v1.038c0,1.628-0.499,2.082-2.159,2.082h-5.183
		c-1.705,0-2.147-0.454-2.147-2.082v-4.633c0-1.629,0.462-2.103,2.147-2.103h5.183c1.64,0,2.159,0.454,2.159,2.103v0.824
		l-1.665,0.274v-1.897H258.629z"/>
	<polygon clip-path="url(#SVGID_2_)" points="285.095,135.606 293.974,135.606 293.974,136.914 286.755,136.914 286.755,139.185 
		291.102,139.185 291.102,140.496 286.755,140.496 286.755,143.134 294.059,143.134 294.059,144.428 285.095,144.428 	"/>
	<path clip-path="url(#SVGID_2_)" d="M336.773,136.914v2.291h5.657c1.681,0,2.143,0.503,2.143,2.078v1.063
		c0,1.628-0.479,2.082-2.143,2.082h-5.367c-1.689,0-2.167-0.454-2.167-2.082v-0.245l1.519-0.314v1.308h6.659v-2.473h-5.682
		c-1.661,0-2.14-0.459-2.14-2.084v-0.824c0-1.648,0.495-2.103,2.14-2.103h4.91c1.543,0,2.167,0.418,2.167,1.931v0.213l-1.52,0.333
		v-1.173H336.773z"/>
	<polygon clip-path="url(#SVGID_2_)" points="363.529,135.606 372.411,135.606 372.411,136.914 365.189,136.914 365.189,139.185 
		369.536,139.185 369.536,140.496 365.189,140.496 365.189,143.134 372.492,143.134 372.492,144.428 363.529,144.428 	"/>
	<path clip-path="url(#SVGID_2_)" d="M390.72,135.603h7.097c1.29,0,1.85,0.481,1.85,1.709v1.979c0,1.206-0.56,1.688-1.85,1.688
		h-1.171l3.896,3.449h-2.231l-3.51-3.449h-2.417v3.449h-1.664V135.603z M392.384,136.897v2.851h4.704c0.729,0,0.93-0.189,0.93-0.897
		v-1.061c0-0.724-0.306-0.893-0.93-0.893H392.384z"/>
	<polygon clip-path="url(#SVGID_2_)" points="416.996,135.606 418.781,135.606 422.738,142.703 426.526,135.606 428.167,135.606 
		423.341,144.428 422.07,144.428 	"/>
	<rect x="445.727" y="135.627" clip-path="url(#SVGID_2_)" width="1.664" height="8.801"/>
	<path clip-path="url(#SVGID_2_)" d="M467.987,136.914v6.18h6.163v-2.091l1.657,0.305v1.038c0,1.628-0.491,2.082-2.16,2.082h-5.179
		c-1.709,0-2.143-0.454-2.143-2.082v-4.633c0-1.629,0.454-2.103,2.143-2.103h5.179c1.646,0,2.16,0.454,2.16,2.103v0.824
		l-1.657,0.274v-1.897H467.987z"/>
	<polygon clip-path="url(#SVGID_2_)" points="494.458,135.606 503.34,135.606 503.34,136.914 496.118,136.914 496.118,139.185 
		500.469,139.185 500.469,140.496 496.118,140.496 496.118,143.134 503.419,143.134 503.419,144.428 494.458,144.428 	"/>
	<path clip-path="url(#SVGID_2_)" d="M523.252,136.914v2.291h5.657c1.68,0,2.143,0.503,2.143,2.078v1.063
		c0,1.628-0.482,2.082-2.143,2.082h-5.373c-1.681,0-2.163-0.454-2.163-2.082v-0.245l1.524-0.314v1.308h6.654v-2.473h-5.677
		c-1.665,0-2.144-0.459-2.144-2.084v-0.824c0-1.648,0.499-2.103,2.144-2.103h4.912c1.532,0,2.159,0.418,2.159,1.931v0.213
		l-1.519,0.333v-1.173H523.252z"/>
</g>
</svg>
