<?xml version="1.0" encoding="utf-8"?>
<!-- Generator: Adobe Illustrator 16.0.4, SVG Export Plug-In . SVG Version: 6.00 Build 0)  -->
<!DOCTYPE svg PUBLIC "-//W3C//DTD SVG 1.1//EN" "http://www.w3.org/Graphics/SVG/1.1/DTD/svg11.dtd">
<svg version="1.1" id="Layer_1" xmlns="http://www.w3.org/2000/svg" xmlns:xlink="http://www.w3.org/1999/xlink" x="0px" y="0px"
	 width="1248.717px" height="595.275px" viewBox="0 0 1248.717 595.275" enable-background="new 0 0 1248.717 595.275"
	 xml:space="preserve">
<g>
	<g>
		<path fill="#FFFFFF" d="M400.302,300.176c0-17.04,5.923-40.505,27.417-40.505c21.231,0,29.652,22.72,29.652,40.505
			c0,18.036-7.18,41.242-29.152,41.242C406.474,341.418,400.302,317.712,400.302,300.176z M458.578,364.14h32.109V178.915h-33.086
			v72.86h-0.47c-9.901-12.108-21.499-17.781-38.061-17.781c-39.023,0-53.348,31.114-53.348,66.182
			c0,34.821,14.323,66.932,53.348,66.932c15.556,0,29.148-4.953,39.029-17.295h0.477L458.578,364.14L458.578,364.14z"/>
		<path fill="#FFFFFF" d="M534.945,288.088c1.506-17.051,10.886-29.894,29.394-29.894c18.526,0,25.945,13.839,26.932,29.894H534.945
			z M613.473,330.045c-12.348,6.938-26.156,12.857-42.206,12.857c-20.492,0-34.816-11.612-36.322-32.1h87.936
			c0-44.464-13.339-76.81-60.51-76.81c-39.504,0-59.024,30.384-59.024,67.177c0,41.731,24.47,65.937,66.431,65.937
			c17.791,0,31.615-3.451,43.697-10.127L613.473,330.045L613.473,330.045z"/>
		<rect x="641.201" y="178.915" fill="#FFFFFF" width="33.105" height="185.226"/>
		<path fill="#FFFFFF" d="M711.665,325.861c0,25.182,14.319,41.245,40.235,41.245c9.876,0,17.551-1.005,24.445-2.967l-0.991-26.17
			c-3.433,2.225-9.125,3.446-15.034,3.446c-12.623,0-15.563-10.127-15.563-20.999v-59.252h29.373V236.96h-29.373v-36.062
			l-33.092,10.631v25.432H687.22v24.205h24.444V325.861L711.665,325.861z"/>
		<path fill="#FFFFFF" d="M800.131,272.033c11.104-8.421,25.17-13.839,39.264-13.839c19.502,0,28.657,6.914,28.657,27.392H849.76
			c-13.828,0-30.123,1.252-42.716,7.436c-12.59,6.164-21.734,17.271-21.734,36.293c0,24.195,21.974,37.793,44.438,37.793
			c15.068,0,31.601-7.909,39.273-21.979h0.485c0.266,3.941,0.266,12.353,1.511,19.012h29.134c-0.746-9.875-1.23-18.771-1.48-28.402
			c-0.25-9.391-0.511-19.021-0.511-31.875v-16.285c0-37.521-16.05-53.583-54.809-53.583c-14.095,0-31.375,3.697-44.224,9.642
			L800.131,272.033z M816.91,327.356c0-19.526,21.994-21.979,36.793-21.979h14.35c0,9.855-1.5,19.012-6.936,26.15
			c-5.172,6.925-13.078,11.373-23.209,11.373C826.056,342.902,816.91,338.21,816.91,327.356z"/>
		<path fill="#FFFFFF" d="M979.22,238.197h-28.638v-35.813l-15.561,5.431v30.384h-24.705v13.338h24.705v73.58
			c0,22.99,0.981,41.991,28.634,41.991c7.664,0,15.323-1.97,19.021-3.451l-0.986-12.857c-4.442,1.751-8.396,2.971-14.308,2.971
			c-12.604,0-16.802-9.384-16.802-20.747v-81.485h28.638L979.22,238.197L979.22,238.197z"/>
		<path fill="#FFFFFF" d="M998.813,364.14h15.54v-62.243c0-22.729,6.674-50.361,31.364-50.361c3.946,0,8.149,0.485,11.371,1.48
			v-16.311c-2.722-0.745-7.175-1.476-10.871-1.476c-16.044,0-26.688,13.077-32.351,27.161h-0.479v-24.194h-15.575
			c1.001,9.116,1.001,14.313,1.001,28.143V364.14L998.813,364.14z"/>
		<path fill="#FFFFFF" d="M1152.744,344.385c-7.429,4.687-23.984,9.384-35.337,9.384c-27.156,0-41.49-21.479-41.49-48.164h86.209
			v-7.895c0-33.837-14.584-62.479-50.143-62.479c-31.849,0-53.093,27.427-53.093,65.939c0,37.778,15.551,65.937,57.281,65.937
			c11.611,0,25.689-2.471,36.571-6.924L1152.744,344.385L1152.744,344.385z M1075.917,292.28c0-20.738,14.084-43.712,37.027-43.712
			c23.234,0,32.131,21.732,32.131,43.712H1075.917z"/>
	</g>
</g>
<g>
	
		<linearGradient id="SVGID_1_" gradientUnits="userSpaceOnUse" x1="339.9275" y1="403.9402" x2="155.6951" y2="423.521" gradientTransform="matrix(1 0 0 -1 24.9448 586.6343)">
		<stop  offset="0" style="stop-color:#E4EEF8"/>
		<stop  offset="0.6872" style="stop-color:#1E86B4"/>
	</linearGradient>
	<path fill="url(#SVGID_1_)" d="M234.868,229.061c13.979,35.042,0.55,17.15,39.725,5.59c37.413-12.764,101.022-22.42,72.364-66.987
		c-26.796-43.377-123.477-97.301-146.146-74.947C176.296,113.874,222.74,195.251,234.868,229.061"/>
	
		<linearGradient id="SVGID_2_" gradientUnits="userSpaceOnUse" x1="172.0383" y1="421.5408" x2="310.1394" y2="421.5408" gradientTransform="matrix(1 0 0 -1 24.9448 586.6343)">
		<stop  offset="0" style="stop-color:#002E64"/>
		<stop  offset="0.0312" style="stop-color:#043A6F"/>
		<stop  offset="0.1355" style="stop-color:#0F5B8D"/>
		<stop  offset="0.2353" style="stop-color:#1773A2"/>
		<stop  offset="0.3276" style="stop-color:#1C82AF"/>
		<stop  offset="0.4051" style="stop-color:#1E86B4"/>
		<stop  offset="1" style="stop-color:#002E64"/>
	</linearGradient>
	<path fill="url(#SVGID_2_)" d="M252.739,237.315c-12.388,4.151-14.534-11.938-39.595-64.771
		c-24.215-52.292-26.121-95.528,28.718-75.146c53.969,19.857,107.376,73.461,89.816,98.651
		C318.099,215.543,263.536,234.68,252.739,237.315"/>
	
		<radialGradient id="SVGID_3_" cx="186.4504" cy="477.4187" r="164.8235" gradientTransform="matrix(1 0 0 -1 24.9448 586.6343)" gradientUnits="userSpaceOnUse">
		<stop  offset="0" style="stop-color:#002E64"/>
		<stop  offset="0.5178" style="stop-color:#1E86B4"/>
		<stop  offset="0.9436" style="stop-color:#7AA9DA"/>
	</radialGradient>
	<path fill="url(#SVGID_3_)" d="M216.186,158.542c-12.147-42.53,16.761-54.329,63.729-26.23
		c46.949,28.146,58.146,58.728,31.115,78.438c-9.792,7.155-55.671,27.748-63.75,23.656
		C238.59,229.967,221.749,183.908,216.186,158.542"/>
	
		<linearGradient id="SVGID_4_" gradientUnits="userSpaceOnUse" x1="66.802" y1="187.4128" x2="366.9705" y2="187.4128" gradientTransform="matrix(1 0 0 -1 24.9448 586.6343)">
		<stop  offset="0" style="stop-color:#FDE5DE"/>
		<stop  offset="0.6872" style="stop-color:#ED1C4E"/>
	</linearGradient>
	<path fill="url(#SVGID_4_)" d="M260.718,300.861c-35.557-49.076-5.418-26.717-61.997,12.103
		c-53.068,39.869-152.359,90.672-83.468,146.901c65.4,55.395,247.729,91.228,272.369,43.803
		C415.771,457.104,297.677,348.57,260.718,300.861"/>
	
		<linearGradient id="SVGID_5_" gradientUnits="userSpaceOnUse" x1="107.5242" y1="138.9294" x2="361.1942" y2="203.8121" gradientTransform="matrix(1 0 0 -1 24.9448 586.6343)">
		<stop  offset="0" style="stop-color:#6B2023"/>
		<stop  offset="0.0341" style="stop-color:#761F26"/>
		<stop  offset="0.178" style="stop-color:#A11E34"/>
		<stop  offset="0.3177" style="stop-color:#C21D3F"/>
		<stop  offset="0.4505" style="stop-color:#DA1C47"/>
		<stop  offset="0.5732" style="stop-color:#E91C4C"/>
		<stop  offset="0.6764" style="stop-color:#ED1C4E"/>
		<stop  offset="1" style="stop-color:#6B2023"/>
	</linearGradient>
	<path fill="url(#SVGID_5_)" d="M235.338,296.443c15.06-8.635,30.704,16.925,91.228,86.322
		c63.539,72.892,90.796,142.523-7.195,134.874c-113.06-8.824-227.616-73.79-190.213-126.935
		C145.692,367.207,224.031,300.18,235.338,296.443"/>
	
		<radialGradient id="SVGID_6_" cx="323.1609" cy="118.3738" r="193.6374" gradientTransform="matrix(1 0 0 -1 24.9448 586.6343)" gradientUnits="userSpaceOnUse">
		<stop  offset="0" style="stop-color:#6B2023"/>
		<stop  offset="0.5963" style="stop-color:#ED1C4E"/>
		<stop  offset="0.9436" style="stop-color:#F47C5B"/>
	</radialGradient>
	<path fill="url(#SVGID_6_)" d="M331.578,405.165c44.283,61.113,1.978,96.217-87.675,75.702
		c-89.564-20.417-131.541-64.734-90.336-105.916c25.972-25.965,75.867-73.695,87.374-74.604
		C254.879,299.3,310.925,371.83,331.578,405.165"/>
	
		<linearGradient id="SVGID_7_" gradientUnits="userSpaceOnUse" x1="154.3621" y1="441.8845" x2="49.202" y2="210.5311" gradientTransform="matrix(1 0 0 -1 24.9448 586.6343)">
		<stop  offset="0" style="stop-color:#F8FAE5"/>
		<stop  offset="0.6872" style="stop-color:#7BA34A"/>
	</linearGradient>
	<path fill="url(#SVGID_7_)" d="M198.41,269.927c39.891-23.511,20.708-3.889-0.66-49.316
		c-22.527-42.991-46.148-118.368-94.854-75.262c-47.69,40.729-94.969,168.12-63.637,191.484
		C69.544,362.635,159.621,290.98,198.41,269.927"/>
	
		<linearGradient id="SVGID_8_" gradientUnits="userSpaceOnUse" x1="65.9441" y1="435.1335" x2="106.5046" y2="260.8733" gradientTransform="matrix(1 0 0 -1 24.9448 586.6343)">
		<stop  offset="0" style="stop-color:#00572D"/>
		<stop  offset="0.0098" style="stop-color:#04592E"/>
		<stop  offset="0.1374" style="stop-color:#2E7338"/>
		<stop  offset="0.2613" style="stop-color:#508840"/>
		<stop  offset="0.379" style="stop-color:#689746"/>
		<stop  offset="0.4878" style="stop-color:#76A049"/>
		<stop  offset="0.5793" style="stop-color:#7BA34A"/>
		<stop  offset="1" style="stop-color:#00572D"/>
	</linearGradient>
	<path fill="url(#SVGID_8_)" d="M204.944,246.618c9.446,14.208-1.205,15.073-67.036,57.6
		C78.49,342.606,22.795,356.495,37.264,286.102c13.979-69.288,67.763-145.46,103.3-128.825
		C167.936,170.104,196.875,231.723,204.944,246.618"/>
	
		<radialGradient id="SVGID_9_" cx="49.7473" cy="271.6042" r="158.2025" gradientTransform="matrix(1 0 0 -1 24.9448 586.6343)" gradientUnits="userSpaceOnUse">
		<stop  offset="0" style="stop-color:#00572D"/>
		<stop  offset="0.5871" style="stop-color:#7BA34A"/>
		<stop  offset="0.9436" style="stop-color:#DBE47C"/>
	</radialGradient>
	<path fill="url(#SVGID_9_)" d="M116.644,306.865c-51.053,18.896-69.423-11.192-44.127-73.496
		c25.341-62.265,60.768-86.909,89.395-52.468c20.078,24.149,42.127,64.779,42.127,72.398
		C204.039,260.53,167.09,287.177,116.644,306.865"/>
</g>
</svg>
