<?xml version="1.0" encoding="utf-8"?>
<!-- Generator: Adobe Illustrator 16.0.2, SVG Export Plug-In . SVG Version: 6.00 Build 0)  -->
<!DOCTYPE svg PUBLIC "-//W3C//DTD SVG 1.0//EN" "http://www.w3.org/TR/2001/REC-SVG-20010904/DTD/svg10.dtd">
<svg version="1.0" id="Layer_1" xmlns="http://www.w3.org/2000/svg" xmlns:xlink="http://www.w3.org/1999/xlink" x="0px" y="0px"
	 width="608px" height="375.644px" viewBox="0 0 608 375.644" enable-background="new 0 0 608 375.644" xml:space="preserve">
<g>
	<path d="M392.052,164.368c3.572,4.316,8.889,6.485,15.948,6.485c5.486,0,10.377-1.148,14.651-3.423
		c3.827-2.042,6.762-3.062,8.846-3.062c3.658,0,5.486,1.595,5.486,4.742c0,4.87-3.296,8.868-9.846,12.057
		c-6.57,3.168-13.758,4.763-21.562,4.763c-9.591,0-17.098-2.147-22.52-6.443c-5.423-4.317-8.123-10.101-8.123-17.374
		c0-10.165,3.614-20.052,10.866-29.664c7.251-9.59,16.841-14.396,28.813-14.396c7.847,0,13.971,1.297,18.352,3.892
		s6.571,6.294,6.571,11.058c0,4.529-1.744,8.357-5.211,11.44c-3.466,3.104-10.079,6.613-19.84,10.568L392.052,164.368
		L392.052,164.368z M393.179,148.547l15.076-5.997c5.486-2.382,10.313-4.763,14.524-7.167c-2.467-1.552-5.934-2.318-10.42-2.318
		C404.683,133.066,398.282,138.233,393.179,148.547L393.179,148.547z"/>
	<path d="M489.741,146.463c-1.212,1.914-3.977,7.103-8.293,15.587c-5.89,11.546-9.994,18.734-12.27,21.562
		c-2.297,2.829-4.827,4.232-7.613,4.232c-1.658,0-3.253-1.233-4.784-3.7c-1.531-2.488-2.701-6.146-3.487-11.015
		c-0.787-4.848-1.19-17.564-1.19-38.127c0-3.785,0.212-6.741,0.658-8.91c0.426-2.147,1.596-3.998,3.445-5.507
		c1.871-1.51,4.04-2.275,6.485-2.275c3.169,0,5.231,0.978,6.231,2.935c0.999,1.956,1.36,6.018,1.063,12.206l-0.383,12.142v12.525
		c6.273-12.376,11.44-22.881,15.523-31.515c2.403-5.358,6.018-8.038,10.845-8.038c2.318,0,4.126,0.787,5.444,2.36
		c1.297,1.595,2.084,4.593,2.339,9.017c0.234,4.423,0.426,9.123,0.553,14.098l0.383,17.629l16.119-38.745
		c1.467-2.999,4.21-4.487,8.229-4.487c2.126,0,3.955,0.659,5.528,1.957c1.553,1.318,2.318,2.956,2.318,4.955
		c0,1.254-0.468,2.871-1.425,4.827c-0.957,1.978-4.274,9.356-9.931,22.137c-5.678,12.759-9.654,20.967-11.972,24.582
		c-2.297,3.615-4.487,6.4-6.529,8.378c-2.063,1.978-4.593,2.956-7.569,2.956c-3.296,0-5.827-2.297-7.613-6.89
		C490.061,176.744,489.359,165.133,489.741,146.463L489.741,146.463z"/>
	<path fill="none" stroke="#000000" stroke-width="0.216" stroke-miterlimit="22.9256" d="M392.052,164.368
		c3.572,4.316,8.889,6.485,15.948,6.485c5.486,0,10.377-1.148,14.651-3.423c3.827-2.042,6.762-3.062,8.846-3.062
		c3.658,0,5.486,1.595,5.486,4.742c0,4.87-3.296,8.868-9.846,12.057c-6.57,3.168-13.758,4.763-21.562,4.763
		c-9.591,0-17.098-2.147-22.52-6.443c-5.423-4.317-8.123-10.101-8.123-17.374c0-10.165,3.614-20.052,10.866-29.664
		c7.251-9.59,16.841-14.396,28.813-14.396c7.847,0,13.971,1.297,18.352,3.892s6.571,6.294,6.571,11.058
		c0,4.529-1.744,8.357-5.211,11.44c-3.466,3.104-10.079,6.613-19.84,10.568L392.052,164.368L392.052,164.368z M393.179,148.547
		l15.076-5.997c5.486-2.382,10.313-4.763,14.524-7.167c-2.467-1.552-5.934-2.318-10.42-2.318
		C404.683,133.066,398.282,138.233,393.179,148.547L393.179,148.547z M489.741,146.463c-1.212,1.914-3.977,7.103-8.293,15.587
		c-5.89,11.546-9.994,18.734-12.27,21.562c-2.297,2.829-4.827,4.232-7.613,4.232c-1.658,0-3.253-1.233-4.784-3.7
		c-1.531-2.488-2.701-6.146-3.487-11.015c-0.787-4.848-1.19-17.564-1.19-38.127c0-3.785,0.212-6.741,0.658-8.91
		c0.426-2.147,1.596-3.998,3.445-5.507c1.871-1.51,4.04-2.275,6.485-2.275c3.169,0,5.231,0.978,6.231,2.935
		c0.999,1.956,1.36,6.018,1.063,12.206l-0.383,12.142v12.525c6.273-12.376,11.44-22.881,15.523-31.515
		c2.403-5.358,6.018-8.038,10.845-8.038c2.318,0,4.126,0.787,5.444,2.36c1.297,1.595,2.084,4.593,2.339,9.017
		c0.234,4.423,0.426,9.123,0.553,14.098l0.383,17.629l16.119-38.745c1.467-2.999,4.21-4.487,8.229-4.487
		c2.126,0,3.955,0.659,5.528,1.957c1.553,1.318,2.318,2.956,2.318,4.955c0,1.254-0.468,2.871-1.425,4.827
		c-0.957,1.978-4.274,9.356-9.931,22.137c-5.678,12.759-9.654,20.967-11.972,24.582c-2.297,3.615-4.487,6.4-6.529,8.378
		c-2.063,1.978-4.593,2.956-7.569,2.956c-3.296,0-5.827-2.297-7.613-6.89C490.061,176.744,489.359,165.133,489.741,146.463
		L489.741,146.463z"/>
	<path d="M438.193,311.441c-8.187,3.742-14.311,5.614-18.373,5.614c-17.117,0-25.666-7.868-25.666-23.626
		c0-13.099,4.572-23.858,13.694-32.259c9.144-8.421,19.266-12.631,30.345-12.631c4.062,0,8.612,1.191,13.609,3.572
		c4.997,2.403,7.507,5.104,7.507,8.145c0,1.871-0.659,3.53-1.999,4.977c-1.403,3.316-2.594,8.144-3.572,14.46
		c-0.979,6.315-1.468,11.036-1.468,14.204c0,1.829,0.128,3.104,0.383,3.85l1.872,6.124c0.956,3.232,1.424,5.231,1.424,5.976
		c0,1.573-0.936,3.274-2.807,5.104s-4.168,2.743-6.911,2.743C444.445,317.693,441.766,315.609,438.193,311.441L438.193,311.441z
		 M440.384,264.616c-1.255-0.787-2.445-1.19-3.551-1.19c-6.188,0-11.93,2.615-17.204,7.825c-5.273,5.231-7.91,11.887-7.91,19.989
		c0,7.379,3.211,11.058,9.654,11.058c5.231,0,10.122-1.723,14.631-5.125C436.471,281.458,437.917,270.613,440.384,264.616
		L440.384,264.616z"/>
	<path d="M497.819,287.943c3.021-4.806,7.209-11.95,12.525-21.413c4.636-8.804,7.868-14.077,9.654-15.8s3.912-2.573,6.4-2.573
		c2.169,0,3.998,0.659,5.486,1.999c1.51,1.318,2.254,2.956,2.254,4.912c0,0.957-0.574,2.573-1.723,4.827
		c-1.147,2.254-3.019,5.593-5.656,9.994c-2.637,4.402-6.081,10.037-10.313,16.885l-11.461,18.479
		c-1.255,1.914-2.148,3.487-2.723,4.742c-0.553,1.255-1.254,2.318-2.084,3.232c-0.829,0.914-1.85,1.638-3.062,2.147
		c-1.19,0.532-2.445,0.787-3.722,0.787c-4.274,0-6.91-2.169-7.91-6.485c-1.425-6.104-5.635-22.86-12.652-50.249
		c-0.255-0.681-0.383-1.403-0.383-2.19c0-2.7,1.084-4.954,3.254-6.762c2.147-1.808,4.529-2.701,7.102-2.701
		c3.318,0,5.529,1.425,6.635,4.296C490.525,254.94,493.333,266.891,497.819,287.943L497.819,287.943z"/>
	<path d="M546.027,294.854c3.572,4.317,8.889,6.486,15.948,6.486c5.486,0,10.377-1.148,14.651-3.424
		c3.828-2.041,6.762-3.063,8.847-3.063c3.657,0,5.485,1.595,5.485,4.742c0,4.87-3.296,8.867-9.846,12.058
		c-6.57,3.168-13.758,4.763-21.562,4.763c-9.591,0-17.097-2.147-22.52-6.443c-5.423-4.316-8.123-10.101-8.123-17.373
		c0-10.164,3.615-20.053,10.866-29.664c7.251-9.591,16.842-14.396,28.813-14.396c7.847,0,13.971,1.297,18.352,3.892
		c4.381,2.594,6.571,6.294,6.571,11.058c0,4.529-1.744,8.357-5.211,11.44c-3.466,3.104-10.079,6.613-19.84,10.568L546.027,294.854
		L546.027,294.854z M547.154,279.034l15.076-5.997c5.486-2.382,10.313-4.764,14.524-7.166c-2.467-1.553-5.933-2.318-10.42-2.318
		C558.658,263.552,552.258,268.72,547.154,279.034L547.154,279.034z"/>
	<path fill="none" stroke="#000000" stroke-width="0.216" stroke-miterlimit="22.9256" d="M438.193,311.441
		c-8.187,3.742-14.311,5.614-18.373,5.614c-17.117,0-25.666-7.868-25.666-23.626c0-13.099,4.572-23.858,13.694-32.259
		c9.144-8.421,19.266-12.631,30.345-12.631c4.062,0,8.612,1.191,13.609,3.572c4.997,2.403,7.507,5.104,7.507,8.145
		c0,1.871-0.659,3.53-1.999,4.977c-1.403,3.316-2.594,8.144-3.572,14.46c-0.979,6.315-1.468,11.036-1.468,14.204
		c0,1.829,0.128,3.104,0.383,3.85l1.872,6.124c0.956,3.232,1.424,5.231,1.424,5.976c0,1.573-0.936,3.274-2.807,5.104
		s-4.168,2.743-6.911,2.743C444.445,317.693,441.766,315.609,438.193,311.441L438.193,311.441z M440.384,264.616
		c-1.255-0.787-2.445-1.19-3.551-1.19c-6.188,0-11.93,2.615-17.204,7.825c-5.273,5.231-7.91,11.887-7.91,19.989
		c0,7.379,3.211,11.058,9.654,11.058c5.231,0,10.122-1.723,14.631-5.125C436.471,281.458,437.917,270.613,440.384,264.616
		L440.384,264.616z M497.819,287.943c3.021-4.806,7.209-11.95,12.525-21.413c4.636-8.804,7.868-14.077,9.654-15.8
		s3.912-2.573,6.4-2.573c2.169,0,3.998,0.659,5.486,1.999c1.51,1.318,2.254,2.956,2.254,4.912c0,0.957-0.574,2.573-1.723,4.827
		c-1.147,2.254-3.019,5.593-5.656,9.994c-2.637,4.402-6.081,10.037-10.313,16.885l-11.461,18.479
		c-1.255,1.914-2.148,3.487-2.723,4.742c-0.553,1.255-1.254,2.318-2.084,3.232c-0.829,0.914-1.85,1.638-3.062,2.147
		c-1.19,0.532-2.445,0.787-3.722,0.787c-4.274,0-6.91-2.169-7.91-6.485c-1.425-6.104-5.635-22.86-12.652-50.249
		c-0.255-0.681-0.383-1.403-0.383-2.19c0-2.7,1.084-4.954,3.254-6.762c2.147-1.808,4.529-2.701,7.102-2.701
		c3.318,0,5.529,1.425,6.635,4.296C490.525,254.94,493.333,266.891,497.819,287.943L497.819,287.943z M546.027,294.854
		c3.572,4.317,8.889,6.486,15.948,6.486c5.486,0,10.377-1.148,14.651-3.424c3.828-2.041,6.762-3.063,8.847-3.063
		c3.657,0,5.485,1.595,5.485,4.742c0,4.87-3.296,8.867-9.846,12.058c-6.57,3.168-13.758,4.763-21.562,4.763
		c-9.591,0-17.097-2.147-22.52-6.443c-5.423-4.316-8.123-10.101-8.123-17.373c0-10.164,3.615-20.053,10.866-29.664
		c7.251-9.591,16.842-14.396,28.813-14.396c7.847,0,13.971,1.297,18.352,3.892c4.381,2.594,6.571,6.294,6.571,11.058
		c0,4.529-1.744,8.357-5.211,11.44c-3.466,3.104-10.079,6.613-19.84,10.568L546.027,294.854L546.027,294.854z M547.154,279.034
		l15.076-5.997c5.486-2.382,10.313-4.764,14.524-7.166c-2.467-1.553-5.933-2.318-10.42-2.318
		C558.658,263.552,552.258,268.72,547.154,279.034L547.154,279.034z"/>
	<path stroke="#000000" stroke-width="0.216" stroke-miterlimit="22.9256" d="M59.931,375.644H17.153
		C62.692,248.61,154.106,123.31,267.135,61.666c59.745-32.585,159.319-78.92,226.763-55.119c42.373,14.955,19.03,22.732-8.128,36
		c-42.192,20.613-49.959,24.356-92.549,52.64c-55.299,36.724-124.631,113.096-150.566,175.453
		c-2.926,7.036-10.264,36.237,5.643,18.564c19.803-22.001,50.974-47.59,77.464-61.016c15.758-7.987,28.493,2.371,15.446,16.798
		c-7.799,8.625-29.246,34.471-24.653,46.854c1.848,4.983,14.671-13.66,16.896-16.166c17.134-19.299,75.713-72.197,103.195-64.311
		c10.053,2.885-9.001,10.98-12.25,12.932c-32.327,19.416-62.896,49.332-88.767,76.672c-13.961,14.754-32.899,25.738-36.884-3.309
		c-2.842-20.714,13.08-45.402-23.413-10.328c-9.167,8.812-29.586,35.615-41.917,32.477c-16.594-4.224-14.456-38.442-10.296-51.729
		c24.16-77.165,125.524-172.462,194.137-214.99c21.535-13.349,36.532-19.296,58.833-30c3.198-1.535-4.802-2.347-4.875-2.348
		c-98.46-2.324-237.067,76.404-302.158,154.94C121.603,232.936,84.557,305.736,59.931,375.644L59.931,375.644z"/>
</g>
</svg>
