<?xml version="1.0" encoding="utf-8"?>
<!-- Generator: Adobe Illustrator 16.0.2, SVG Export Plug-In . SVG Version: 6.00 Build 0)  -->
<!DOCTYPE svg PUBLIC "-//W3C//DTD SVG 1.1//EN" "http://www.w3.org/Graphics/SVG/1.1/DTD/svg11.dtd">
<svg version="1.1" id="Layer_1" xmlns="http://www.w3.org/2000/svg" xmlns:xlink="http://www.w3.org/1999/xlink" x="0px" y="0px"
	 width="378px" height="176px" viewBox="0 0 378 176" enable-background="new 0 0 378 176" xml:space="preserve">
<g>
	<defs>
		<rect id="SVGID_1_" x="1.49" y="-3" width="376.51" height="181.76"/>
	</defs>
	<clipPath id="SVGID_2_">
		<use xlink:href="#SVGID_1_"  overflow="visible"/>
	</clipPath>
	<path clip-path="url(#SVGID_2_)" fill="#0290BE" d="M227.58,89.553c0,3.112-2.538,5.655-5.649,5.655h-59.357
		c-3.108,0-5.647-2.543-5.647-5.655V30.205c0-3.112,2.539-5.655,5.647-5.655h59.357c3.111,0,5.649,2.543,5.649,5.655V89.553z"/>
	<path clip-path="url(#SVGID_2_)" fill="#67BAD7" d="M227.442,167.441c0,3.112-2.547,5.646-5.654,5.646h-59.353
		c-3.108,0-5.651-2.534-5.651-5.646v-59.356c0-3.111,2.543-5.654,5.651-5.654h59.353c3.107,0,5.654,2.543,5.654,5.654V167.441z"/>
</g>
<g>
	<defs>
		<rect id="SVGID_3_" x="4.489" y="2.297" width="370.513" height="171.172"/>
	</defs>
	<clipPath id="SVGID_4_">
		<use xlink:href="#SVGID_3_"  overflow="visible"/>
	</clipPath>
	<path clip-path="url(#SVGID_4_)" fill="#B3DCEA" d="M149.68,167.816c0,3.104-2.547,5.646-5.654,5.646H84.668
		c-3.104,0-5.647-2.542-5.647-5.646v-59.357c0-3.112,2.543-5.654,5.647-5.654h59.357c3.107,0,5.654,2.542,5.654,5.654V167.816z"/>
	<path clip-path="url(#SVGID_4_)" fill="#FF7300" d="M108.94,4.547c3.075-3.03,8.023-2.998,11.057,0.074l49.547,50.225
		c3.03,3.079,2.998,8.027-0.078,11.057l-50.221,49.55c-3.079,3.03-8.027,2.999-11.057-0.081L58.642,65.156
		c-3.034-3.079-2.994-8.027,0.073-11.057L108.94,4.547z"/>
</g>
<g>
	<defs>
		<rect id="SVGID_5_" x="1.49" y="-3" width="376.51" height="181.76"/>
	</defs>
	<clipPath id="SVGID_6_">
		<use xlink:href="#SVGID_5_"  overflow="visible"/>
	</clipPath>
	<path clip-path="url(#SVGID_6_)" d="M15.782,54.066h4.338v14.859h-4.769l-0.032-4.606c-0.28,0.155-0.561,0.301-0.87,0.43
		c-0.52,0.212-1.669,0.594-3.282,0.594c-2.47,0-4.667-1-5.752-2.502c-0.187-0.276-0.434-0.699-0.682-1.381
		c-0.09-0.358-0.248-0.91-0.248-1.755c0-0.488,0.061-2.543,1.645-4.071c1.202-1.21,3.25-1.893,5.354-1.893
		c1.885,0,2.941,0.431,4.298,1.251V54.066z M10.086,57.007c-0.65,0.658-0.893,1.739-0.893,2.527c0,0.674,0.15,1.162,0.276,1.422
		c0.065,0.187,0.869,1.966,2.969,1.966c1.734,0,3.254-1.138,3.254-3.454c0-2.145-1.268-3.217-2.819-3.371
		C11.76,55.991,10.708,56.414,10.086,57.007"/>
	<path clip-path="url(#SVGID_6_)" d="M40.573,54.042v11.065h-4.769v-1.04c-0.338,0.251-0.524,0.381-0.711,0.488
		c-0.585,0.316-2.007,0.869-3.994,0.869c-0.369,0-2.165,0-3.433-0.683c-1.795-0.967-1.673-2.754-1.641-4.102v-6.598h4.794v6.89
		c0,0.698,0,1.251,0.902,1.584c0.248,0.13,0.682,0.26,1.389,0.26c1.52,0,2.323-0.593,2.543-1c0.15-0.268,0.15-0.544,0.187-0.845
		v-6.89H40.573z"/>
	<path clip-path="url(#SVGID_6_)" d="M60.376,63.393c0,0.95,0.064,1.308,0.467,1.714h-4.675v-0.999
		c-0.342,0.17-0.65,0.325-0.991,0.471c-0.585,0.277-1.95,0.82-3.957,0.82c-2.913,0-4.245-1.08-4.77-1.819
		c-0.341-0.463-0.528-1.016-0.528-1.544c0-1.998,2.6-2.949,3.315-3.16c1.207-0.357,3.404-0.658,6.467-1.04v-0.618
		c-0.032-0.381-0.093-1.332-1.824-1.332c-1.393,0-2.043,0.446-2.291,0.804c-0.062,0.089-0.154,0.26-0.216,0.488h-4.769
		c0.065-0.447,0.089-1.397,1.3-2.226c1.333-0.886,3.095-1.056,3.656-1.122c0.927-0.089,1.698-0.089,2.072-0.089
		c2.259,0,5.321,0.366,6.402,1.95c0.188,0.3,0.317,0.602,0.342,1.234V63.393z M52.642,60.509c-0.187,0.041-0.37,0.082-0.561,0.146
		c-1.174,0.341-1.482,0.805-1.482,1.227c0,0.065,0.028,0.301,0.187,0.512c0.182,0.211,0.65,0.618,1.637,0.618
		c0.87,0,1.613-0.341,1.828-0.447c1.393-0.683,1.454-1.714,1.454-2.754L52.642,60.509z"/>
	<path clip-path="url(#SVGID_6_)" d="M71.832,50.84v3.478h3.152v1.99h-3.152v4.964c-0.033,0.439-0.033,0.699,0.122,0.886
		c0.276,0.365,1.02,0.365,1.113,0.365c0.552,0,1.113-0.024,1.669-0.024v2.519c-0.305,0.049-1.422,0.17-2.507,0.17
		c-0.337,0-0.678,0-0.987-0.016c-0.434-0.025-1.856,0-2.941-0.683c-1.239-0.739-1.178-1.86-1.178-2.875v-5.321h-2.352v-1.991h2.352
		V50.84H71.832z"/>
	<path clip-path="url(#SVGID_6_)" d="M85.229,50.84v3.478h3.161v1.99h-3.161v4.964c-0.028,0.439-0.028,0.699,0.126,0.886
		c0.28,0.365,1.019,0.365,1.117,0.365c0.552,0,1.109-0.024,1.666-0.024v2.519c-0.309,0.049-1.421,0.17-2.502,0.17
		c-0.341,0-0.682,0-0.991-0.016c-0.431-0.025-1.861,0-2.941-0.683c-1.243-0.739-1.178-1.86-1.178-2.875v-5.321h-2.348v-1.991h2.348
		V50.84H85.229z"/>
	<path clip-path="url(#SVGID_6_)" d="M102.59,56.796l-1.576,0.17c-0.154,0.024-0.897,0.082-1.487,0.236
		c-1.267,0.292-1.486,0.845-1.486,1.673v6.231h-4.737V54.018h4.615v1.169c0.398-0.235,0.833-0.528,1.885-0.829
		c1.3-0.358,2.202-0.398,2.786-0.447V56.796z"/>
	<path clip-path="url(#SVGID_6_)" d="M120.05,54.911c2.007,1.122,2.97,2.884,2.97,4.664c0,2.502-1.735,3.94-2.848,4.574
		c-0.931,0.528-2.819,1.299-5.85,1.299c-0.837,0-4.119-0.113-6.345-1.592c-0.958-0.634-2.32-1.991-2.32-4.306
		c0-0.633,0.062-2.437,1.889-3.94c1.113-0.91,3.339-2.056,7.426-1.884C116.857,53.79,118.531,54.082,120.05,54.911 M112.34,56.609
		c-0.862,0.357-1.885,1.292-1.885,2.925c0,1.081,0.528,1.885,0.837,2.226c0.366,0.381,1.296,1.081,3.091,1.081
		c2.628,0,3.806-1.511,3.806-3.161c0-1.674-0.771-2.527-1.698-2.965c-0.434-0.211-1.178-0.471-2.449-0.422
		C113.827,56.308,113.022,56.349,112.34,56.609"/>
	<path clip-path="url(#SVGID_6_)" d="M218.624,148.351h-10.521v-12.764c0-2.519,0-3.958-0.968-4.98
		c-0.828-0.935-2.478-1.397-3.993-1.397c-0.89,0-3.366,0.138-4.675,1.722c-0.829,0.975-0.756,1.999-0.756,4.192v13.228h-10.529
		v-14.438c-0.065-2.33-0.479-3.354-2.063-4.053c-0.894-0.424-1.99-0.609-3.095-0.609c-0.479,0-1.86,0-3.03,0.609
		c-2.198,1.112-2.198,3.021-2.267,4.606v13.885H166.27v-24.317h10.456l0.068,2.519c0.623-0.511,1.033-0.837,1.792-1.259
		c1.373-0.748,3.989-1.91,8.319-1.91c0.829,0,4.542,0.05,7.158,1.162c1.102,0.471,1.995,1.072,2.893,1.682
		c1.305-0.747,1.787-0.982,2.543-1.309c1.238-0.511,4.196-1.535,8.12-1.535c1.234,0,6.26,0.05,9.218,2.658
		c1.718,1.437,1.787,2.98,1.787,6.474V148.351z"/>
	<path clip-path="url(#SVGID_6_)" d="M239.747,137.683c0,0.235-0.074,0.797,0.138,1.446c0.821,2.835,3.786,4.606,8.048,4.606
		c0.621,0,1.995-0.04,3.44-0.415c3.579-0.837,5.158-3.306,5.638-3.916l7.987,2.795c-1.447,1.446-2.206,2.097-3.03,2.746
		c-5.298,3.965-12.179,4.29-14.86,4.29c-1.101,0-3.648-0.049-6.467-0.659c-7.983-1.672-11.699-6.426-11.699-11.918
		c0-1.486,0.207-6.012,4.614-9.505c2.201-1.674,5.984-3.867,13.827-3.867c2.406,0,9.564,0.187,14.036,4.427
		c4.059,3.771,3.92,8.759,3.989,9.921L239.747,137.683z M253.501,133.166c-0.137-0.789-0.341-3.217-3.878-4.291
		c-1.432-0.463-2.589-0.463-3.197-0.463c-4.152,0-6.126,2.096-6.671,2.933c-0.276,0.424-0.479,0.935-0.747,1.86L253.501,133.166z"/>
	<path clip-path="url(#SVGID_6_)" d="M307.172,148.351h-9.636l-0.065-2.284c-0.689,0.463-1.243,0.838-2.063,1.26
		c-3.1,1.535-6.195,1.674-7.637,1.674c-2.413-0.049-8.052-0.513-11.976-4.282c-1.723-1.681-3.371-4.005-3.371-8.384
		c0-1.397,0-7.735,6.816-11.14c1.234-0.649,3.988-1.812,8.181-1.812c5.021,0,8.051,1.723,9.429,2.47v-10.391h10.322V148.351z
		 M285.017,130.833c-1.446,1.446-1.856,3.633-1.856,5.362c0,0.463-0.069,3.672,1.994,5.729c1.584,1.584,3.713,1.763,4.817,1.763
		c1.234,0,2.681-0.325,3.714-0.877c3.646-1.959,3.437-6.013,3.437-6.614c0-0.608,0.137-3.542-1.788-5.589
		c-0.683-0.657-2.404-2.104-5.638-1.82C287.697,128.974,286.116,129.713,285.017,130.833"/>
	<rect x="320.032" y="124.033" clip-path="url(#SVGID_6_)" width="10.529" height="24.317"/>
	<path clip-path="url(#SVGID_6_)" d="M373.971,144.571c0,2.104,0.137,2.893,1.031,3.779h-10.391v-2.187
		c-0.748,0.365-1.438,0.698-2.198,1.023c-1.304,0.602-4.335,1.813-8.807,1.813c-6.468,0-9.425-2.372-10.595-4.006
		c-0.759-1.023-1.165-2.234-1.165-3.403c0-4.371,5.775-6.468,7.36-6.939c2.682-0.787,7.563-1.438,14.372-2.282v-1.349
		c-0.064-0.837-0.203-2.933-4.054-2.933c-3.096,0-4.542,0.975-5.09,1.771c-0.143,0.186-0.345,0.56-0.484,1.071h-10.598
		c0.142-0.981,0.208-3.078,2.888-4.897c2.966-1.951,6.882-2.325,8.124-2.463c2.064-0.188,3.786-0.188,4.606-0.188
		c5.021,0,11.838,0.789,14.243,4.282c0.413,0.658,0.687,1.309,0.756,2.706V144.571z M356.771,138.243
		c-0.41,0.089-0.829,0.187-1.235,0.324c-2.615,0.748-3.306,1.771-3.306,2.697c0,0.147,0.073,0.659,0.414,1.121
		c0.414,0.472,1.447,1.35,3.647,1.35c1.926,0,3.575-0.748,4.059-0.976c3.096-1.495,3.229-3.777,3.229-6.053L356.771,138.243z"/>
	<path clip-path="url(#SVGID_6_)" fill="#FF7300" d="M324.622,108.027c0.317-0.308,0.829-0.308,1.142,0.01l5.103,5.175
		c0.313,0.317,0.309,0.828-0.009,1.138l-5.17,5.109c-0.318,0.309-0.83,0.301-1.143-0.008l-5.105-5.176
		c-0.31-0.316-0.31-0.828,0.008-1.145L324.622,108.027z"/>
</g>
</svg>
