<?xml version="1.0" encoding="utf-8"?>
<!-- Generator: Adobe Illustrator 16.0.2, SVG Export Plug-In . SVG Version: 6.00 Build 0)  -->
<!DOCTYPE svg PUBLIC "-//W3C//DTD SVG 1.1//EN" "http://www.w3.org/Graphics/SVG/1.1/DTD/svg11.dtd">
<svg version="1.1" id="Layer_1" xmlns="http://www.w3.org/2000/svg" xmlns:xlink="http://www.w3.org/1999/xlink" x="0px" y="0px"
	 width="370px" height="142px" viewBox="0 0 370 142" enable-background="new 0 0 370 142" xml:space="preserve">
<g>
	<defs>
		<rect id="SVGID_1_" x="2.141" y="1.815" width="366.33" height="139.198"/>
	</defs>
	<clipPath id="SVGID_2_">
		<use xlink:href="#SVGID_1_"  overflow="visible"/>
	</clipPath>
	<path clip-path="url(#SVGID_2_)" fill="#006F82" d="M2.137,9.867h4.836V2.489h10.419v7.378h5.625v6.547h-5.625v8.092
		c0,2.145,0.874,2.267,3.126,2.267c0.833,0,1.789-0.041,2.793-0.082v6.121c-1.837,0.247-4.339,0.509-7.584,0.509
		c-6.339,0-8.755-1.224-8.755-7.477v-9.431H2.137V9.867z"/>
	<path clip-path="url(#SVGID_2_)" fill="#006F82" d="M26.642,1.815h10.424v10.91h0.082c0.996-1.471,4.082-3.484,9.085-3.484
		c5.75,0,10.085,2.597,10.085,8.972v14.599h-10.42V20.941c0-2.892-1.542-4.149-3.999-4.149c-2.755,0-4.833,1.635-4.833,5.447v10.574
		H26.642V1.815z"/>
	<path clip-path="url(#SVGID_2_)" fill="#006F82" d="M91.782,25.936c-0.792,2.382-2.543,4.362-5.208,5.702
		c-2.669,1.339-6.252,2.095-11.044,2.095c-10.963,0-17.216-4.026-17.216-12.414c0-7.928,6.004-12.373,16.256-12.373
		c10.085,0,17.505,3.393,17.334,14.845H68.983c0,1.635,1.706,4.157,6.293,4.157c2.71,0,4.293-0.591,5.42-2.012H91.782z
		 M81.403,18.509c-0.208-2.473-2.584-4.026-6.167-4.026c-3.625,0-5.71,1.134-6.253,4.026H81.403z"/>
	<path clip-path="url(#SVGID_2_)" fill="#006F82" d="M183.72,116.229c-8.64-0.896-11.142-4.379-11.142-10.072
		c0-7.748,7.15-11.043,21.697-11.043c10.138,0,21.279,1.857,21.581,11.156h-16.813c0-0.836-0.299-1.559-1.131-2.037
		c-0.837-0.484-2.209-0.838-4.414-0.838c-4.468,0-5.304,1.02-5.304,2.275c0,0.84,0.774,1.742,3.999,2.039l14.183,1.266
		c8.049,0.715,11.09,4.313,11.09,9.898c0,8.453-7.274,11.699-23.012,11.699c-15.5,0-22.236-3.246-22.713-11.525h17.53
		c0.173,1.32,0.833,2.168,1.845,2.645c1.078,0.477,2.563,0.6,4.229,0.6c3.819,0,4.952-1.02,4.952-2.523
		c0-0.961-0.479-1.855-2.029-2.035L183.72,116.229z"/>
	<path clip-path="url(#SVGID_2_)" fill="#006F82" d="M219.705,84.91h14.902v15.602h0.118c1.433-2.104,5.849-4.979,13-4.979
		c8.228,0,14.423,3.713,14.423,12.832v20.885h-14.9v-16.982c0-4.141-2.208-5.939-5.722-5.939c-3.94,0-6.919,2.342-6.919,7.805
		v15.117h-14.902V84.91z"/>
	<path clip-path="url(#SVGID_2_)" fill="#006F82" d="M290.596,95.113c16.812,0,24.147,5.637,24.147,17.697
		c0,12.117-7.336,17.762-24.147,17.762c-16.811,0-24.145-5.645-24.145-17.762C266.451,100.75,273.785,95.113,290.596,95.113
		 M290.596,120.854c6.021,0,8.522-2.762,8.522-8.043c0-5.16-2.502-7.986-8.522-7.986c-5.957,0-8.521,2.826-8.521,7.986
		C282.074,118.092,284.639,120.854,290.596,120.854"/>
	<path clip-path="url(#SVGID_2_)" fill="#006F82" d="M320.104,96.428h14.429v3.904h0.117c2.683-3.123,6.797-4.799,13.417-4.799
		c9.66,0,18.541,5.34,18.541,17.516c0,12.184-8.881,17.523-18.541,17.523c-6.081,0-10.375-1.504-12.942-4.625h-0.113v15.059h-14.907
		V96.428z M343.235,120.492c5.367,0,8.109-3.238,8.109-7.443c0-4.322-2.384-7.443-8.168-7.443c-5.721,0-8.165,2.768-8.165,7.443
		C335.012,117.666,337.456,120.492,343.235,120.492"/>
	<rect x="4.545" y="96.338" clip-path="url(#SVGID_2_)" fill="#006F82" width="163.882" height="31.787"/>
	<path clip-path="url(#SVGID_2_)" fill="#006F82" d="M242.656,23.611c3.656,0,6.726,2.498,7.648,5.882h33.889
		c0.918-3.385,3.995-5.882,7.648-5.882c3.649,0,6.722,2.498,7.644,5.882h51.206l-0.049-16.48H97.124v16.48h137.892
		C235.934,26.108,239.007,23.611,242.656,23.611"/>
	<path clip-path="url(#SVGID_2_)" fill="#070707" d="M21.075,48.093v8.034h11.917c3.282,0,4.653-1.323,4.653-4.017
		c0-3.245-2.086-4.017-4.886-4.017H21.075 M56.604,80.129H38.242c-0.596-1.266-0.596-3.121-0.89-8.1
		c-0.18-3.184-1.257-5.098-4.359-5.098H21.075v13.198H4.26V37.29h35.414c4.829,0,7.751,0.419,10.078,1.561
		c3.159,1.561,5.779,5.693,5.779,10.376c0,4.025-1.666,8.347-6.555,9.785v0.114c2.498,0.723,4.526,2.884,4.829,6.597l0.714,9.369
		C54.698,77.008,55.531,78.807,56.604,80.129"/>
	<polygon clip-path="url(#SVGID_2_)" fill="#070707" points="106.859,80.129 61.612,80.129 61.612,37.29 106.859,37.29 
		106.859,47.731 78.423,47.731 78.423,53.49 104.834,53.49 104.834,63.924 78.423,63.924 78.423,69.691 106.859,69.691 	"/>
	<path clip-path="url(#SVGID_2_)" fill="#070707" d="M137.98,81.633c-11.804,0-27.84-2.941-27.84-22.745
		c0-18.781,14.906-23.102,27.778-23.102c18.722,0,27.603,5.167,28.913,16.201h-18.955c-0.478-2.218-1.731-3.598-3.281-4.378
		c-1.608-0.781-3.518-1.019-5.723-1.019c-6.857,0-11.208,3.417-11.208,12.118c0,7.919,4.172,12.122,12.522,12.122
		c5.481,0,8.224-2.157,9.412-5.401h-6.909v-9.719h23.904v24.42h-7.212l-1.91-3.902C153.122,80.129,147.64,81.633,137.98,81.633"/>
	<path clip-path="url(#SVGID_2_)" fill="#070707" d="M196.581,50.245l-5.008,14.525h10.13l-5.004-14.525H196.581z M225.077,80.129
		h-17.884l-1.788-4.922h-17.53l-1.787,4.922h-17.886l18.121-42.839h20.633L225.077,80.129"/>
	<path clip-path="url(#SVGID_2_)" fill="#070707" d="M339.966,50.245l-5.007,14.525h10.134l-5.005-14.525H339.966z M368.462,80.129
		H350.58l-1.79-4.922h-17.525l-1.788,4.922h-17.886l18.122-42.839h20.629L368.462,80.129"/>
	<rect x="218.706" y="37.035" clip-path="url(#SVGID_2_)" width="14.303" height="10.87"/>
	<path clip-path="url(#SVGID_2_)" d="M248.55,37.035c-1.484,1.594-3.6,2.596-5.935,2.596c-2.344,0-4.452-1.002-5.942-2.596h-2.306
		v10.87h0.009V66.98h7.773v-4.255h1.363v4.255h7.779V47.904h0.004v-10.87H248.55z"/>
	<rect x="234.372" y="68.344" clip-path="url(#SVGID_2_)" width="7.777" height="11.803"/>
	<rect x="252.655" y="37.035" clip-path="url(#SVGID_2_)" width="13.943" height="10.87"/>
	<rect x="243.509" y="68.352" clip-path="url(#SVGID_2_)" width="7.783" height="11.794"/>
	<rect x="268.026" y="37.035" clip-path="url(#SVGID_2_)" width="13.947" height="10.87"/>
	<path clip-path="url(#SVGID_2_)" d="M297.507,37.035c-1.486,1.594-3.601,2.596-5.939,2.596s-4.449-1.002-5.934-2.596h-2.302v10.87
		l0,0V66.98h7.78v-4.255h1.358v4.255h7.781V47.904l0,0v-10.87H297.507z"/>
	<rect x="283.332" y="68.344" clip-path="url(#SVGID_2_)" width="7.78" height="11.803"/>
	<rect x="301.616" y="37.035" clip-path="url(#SVGID_2_)" width="14.294" height="10.87"/>
	<rect x="292.466" y="68.352" clip-path="url(#SVGID_2_)" width="7.782" height="11.794"/>
	<path clip-path="url(#SVGID_2_)" d="M242.656,24.819c-3.715,0-6.727,3.031-6.727,6.769c0,3.738,3.012,6.77,6.727,6.77
		c3.719,0,6.73-3.032,6.73-6.77C249.387,27.85,246.375,24.819,242.656,24.819"/>
	<path clip-path="url(#SVGID_2_)" d="M301.192,36.008c0,0-0.728-0.025-2.42-2.44c-0.157-0.222-0.299-0.386-0.445-0.518
		c0.101-0.468,0.163-0.961,0.163-1.462c0-3.738-3.017-6.769-6.731-6.769c-3.718,0-6.73,3.031-6.73,6.769
		c0,0.551,0.075,1.077,0.197,1.585c-0.102,0.115-0.213,0.239-0.318,0.395c-1.694,2.416-2.425,2.44-2.425,2.44h4.18
		c1.233,1.438,3.058,2.357,5.097,2.357c2.037,0,3.862-0.92,5.096-2.357H301.192z"/>
</g>
</svg>
