<?xml version="1.0" encoding="utf-8"?>
<!-- Generator: Adobe Illustrator 16.0.2, SVG Export Plug-In . SVG Version: 6.00 Build 0)  -->
<!DOCTYPE svg PUBLIC "-//W3C//DTD SVG 1.1//EN" "http://www.w3.org/Graphics/SVG/1.1/DTD/svg11.dtd">
<svg version="1.1" id="Layer_1" xmlns="http://www.w3.org/2000/svg" xmlns:xlink="http://www.w3.org/1999/xlink" x="0px" y="0px"
	 width="297px" height="149px" viewBox="0 0 297 149" enable-background="new 0 0 297 149" xml:space="preserve">
<g>
	<defs>
		<rect id="SVGID_1_" x="1.373" y="-14.907" width="294.378" height="178.412"/>
	</defs>
	<clipPath id="SVGID_2_">
		<use xlink:href="#SVGID_1_"  overflow="visible"/>
	</clipPath>
	<path clip-path="url(#SVGID_2_)" fill-rule="evenodd" clip-rule="evenodd" fill="#CA0015" d="M1.368,109.374h15.086
		c0,0,100.205-87.194,225.594-59.516L295.751,3.64C295.751,3.64,145.726-14.907,1.368,109.374"/>
	<path clip-path="url(#SVGID_2_)" fill-rule="evenodd" clip-rule="evenodd" fill="#010102" d="M120.395,63.149H75.137V46.262h45.258
		 M212.017,63.149h-49.965V46.956h64.355c0,0,1.252-14.395-16.327-14.395h-49.271c0,0-13.423,1.251-13.423,14.672v16.471
		c0,0,1.8,14.11,14.391,14.11h50.24v17.722h-65.882c0,0-9.825,0.407-14.117-6.646l-10.095-11.076c0,0,13.832-2.076,13.832-13.422
		V45.714c0,0-1.521-13.43-16.88-13.43H72.648c0,0-13.426,0.833-13.704,15.499v48.721c0,0,0.278,13.42,15.641,13.42V78.101h28.095
		l18.409,22.97c0,0,3.318,8.584,17.163,8.584h75.289c0,0,14.118-1.808,14.392-15.924V78.51
		C227.933,78.51,227.659,64.123,212.017,63.149"/>
	<path clip-path="url(#SVGID_2_)" fill="#010102" d="M18.633,146.21v-13.514h9.531c1.651,0,2.477,0.876,2.477,2.624v3.188
		c0,1.724-0.826,2.592-2.477,2.592h-1.456l5.031,5.109h-3.703l-4.426-5.109h-2.428v5.109H18.633z M27.061,135.026h-5.878v3.746
		h5.878c0.784,0,1.176-0.363,1.176-1.089v-1.567C28.237,135.396,27.845,135.026,27.061,135.026"/>
	<polygon clip-path="url(#SVGID_2_)" fill="#010102" points="34.891,146.21 34.891,132.696 46.25,132.696 46.25,135.094 
		37.495,135.094 37.495,138.034 42.596,138.034 42.596,140.364 37.495,140.364 37.495,143.684 46.376,143.684 46.376,146.21 	"/>
	<path clip-path="url(#SVGID_2_)" fill="#010102" d="M60.485,135.191h-8.031v8.433h8.031v-2.875h-4.202v-2.396h6.728v4.66
		c0,1.258-0.192,2.108-0.576,2.541c-0.38,0.435-1.107,0.655-2.179,0.655h-7.65c-1.071,0-1.791-0.221-2.179-0.655
		c-0.384-0.433-0.572-1.283-0.572-2.541v-7.119c0-1.26,0.192-2.103,0.584-2.545c0.393-0.43,1.112-0.653,2.167-0.653h7.65
		c1.039,0,1.758,0.206,2.154,0.631c0.401,0.407,0.601,1.218,0.601,2.402v0.352l-2.526,0.55V135.191z"/>
	<path clip-path="url(#SVGID_2_)" fill="#010102" d="M65.811,146.21l6.282-13.514h2.477l6.38,13.514h-2.902l-1.328-2.968h-7.005
		l-1.324,2.968H65.811z M70.817,140.781h4.855l-2.477-5.622L70.817,140.781z"/>
	<polygon clip-path="url(#SVGID_2_)" fill="#010102" points="89.879,135.127 89.879,146.21 87.301,146.21 87.301,135.127 
		82.2,135.127 82.2,132.696 95.005,132.696 95.005,135.127 	"/>
	<polygon clip-path="url(#SVGID_2_)" fill="#010102" points="104.643,135.127 104.643,146.21 102.06,146.21 102.06,135.127 
		96.959,135.127 96.959,132.696 109.769,132.696 109.769,135.127 	"/>
	<path clip-path="url(#SVGID_2_)" fill="#010102" d="M111.494,146.21l6.281-13.514h2.478l6.38,13.514h-2.903l-1.324-2.968h-7.009
		l-1.328,2.968H111.494z M116.495,140.781h4.855l-2.477-5.622L116.495,140.781z"/>
	<path clip-path="url(#SVGID_2_)" fill="#010102" d="M139.04,135.127h-7.283v2.843h6.88c1.065,0,1.793,0.221,2.178,0.654
		c0.384,0.433,0.576,1.283,0.576,2.542v1.848c0,1.258-0.192,2.108-0.576,2.541c-0.384,0.441-1.112,0.655-2.178,0.655h-6.88
		c-1.062,0-1.798-0.214-2.19-0.655c-0.393-0.433-0.589-1.283-0.589-2.541v-0.377l2.305-0.549v1.604h7.782v-3.105h-6.858
		c-1.051,0-1.773-0.212-2.174-0.655c-0.4-0.433-0.601-1.283-0.601-2.532v-1.504c0-1.26,0.2-2.103,0.601-2.545
		c0.401-0.43,1.124-0.653,2.174-0.653h6.278c1.021,0,1.736,0.206,2.159,0.607c0.411,0.397,0.62,1.184,0.62,2.336v0.32l-2.224,0.605
		V135.127z"/>
	<path clip-path="url(#SVGID_2_)" fill="#010102" d="M145.841,146.21v-13.514h9.532c0.866,0,1.496,0.206,1.888,0.607
		c0.392,0.407,0.59,1.077,0.59,2.017v3.001c0,1.749-0.826,2.614-2.478,2.614h-6.978v5.274H145.841z M154.274,135.026h-5.879v3.581
		h5.879c0.779,0,1.171-0.357,1.171-1.088v-1.403C155.445,135.396,155.054,135.026,154.274,135.026"/>
	<path clip-path="url(#SVGID_2_)" fill="#010102" d="M161.303,135.895c0-1.277,0.193-2.134,0.576-2.561
		c0.386-0.424,1.112-0.638,2.18-0.638h8.198c1.066,0,1.794,0.214,2.179,0.638c0.384,0.427,0.58,1.283,0.58,2.561v7.119
		c0,1.258-0.204,2.108-0.592,2.541c-0.393,0.435-1.116,0.655-2.167,0.655h-8.198c-1.067,0-1.794-0.221-2.18-0.655
		c-0.383-0.433-0.576-1.283-0.576-2.541V135.895z M163.903,143.624h8.503v-8.433h-8.503V143.624z"/>
	<path clip-path="url(#SVGID_2_)" fill="#010102" d="M179.442,146.21v-13.514h9.525c1.656,0,2.479,0.876,2.479,2.624v3.188
		c0,1.724-0.822,2.592-2.479,2.592h-1.45l5.033,5.109h-3.704l-4.431-5.109h-2.419v5.109H179.442z M187.869,135.026h-5.872v3.746
		h5.872c0.782,0,1.178-0.363,1.178-1.089v-1.567C189.047,135.396,188.651,135.026,187.869,135.026"/>
	<polygon clip-path="url(#SVGID_2_)" fill="#010102" points="202.007,135.127 202.007,146.21 199.429,146.21 199.429,135.127 
		194.323,135.127 194.323,132.696 207.132,132.696 207.132,135.127 	"/>
	<path clip-path="url(#SVGID_2_)" fill="#010102" d="M213.589,141.256c0.398,0,0.598,0.401,0.598,1.188v2.589
		c0,0.548-0.06,0.882-0.185,1.007c-0.124,0.113-0.413,0.171-0.866,0.171h-2.226c-0.398,0-0.598-0.393-0.598-1.178v-2.589
		c0-0.56,0.065-0.894,0.185-1.009c0.127-0.115,0.413-0.179,0.866-0.179H213.589z"/>
	<path clip-path="url(#SVGID_2_)" fill="#010102" d="M228.026,135.191h-6.933v8.433h6.933v-2.875l2.595,0.668v1.597
		c0,1.258-0.191,2.108-0.584,2.541c-0.394,0.435-1.119,0.655-2.191,0.655h-6.604c-1.063,0-1.79-0.221-2.175-0.671
		c-0.384-0.449-0.58-1.29-0.58-2.525v-7.119c0-1.26,0.196-2.103,0.58-2.545c0.385-0.43,1.112-0.653,2.175-0.653h6.604
		c1.072,0,1.798,0.224,2.191,0.653c0.393,0.442,0.584,1.285,0.584,2.545v1.307l-2.595,0.482V135.191z"/>
	<path clip-path="url(#SVGID_2_)" fill="#010102" d="M234.605,135.895c0-1.277,0.189-2.134,0.574-2.561
		c0.384-0.424,1.11-0.638,2.178-0.638h8.198c1.068,0,1.794,0.214,2.179,0.638c0.386,0.427,0.58,1.283,0.58,2.561v7.119
		c0,1.258-0.194,2.108-0.588,2.541c-0.392,0.435-1.12,0.655-2.171,0.655h-8.198c-1.067,0-1.794-0.221-2.178-0.655
		c-0.385-0.433-0.574-1.283-0.574-2.541V135.895z M237.202,143.624h8.506v-8.433h-8.506V143.624z"/>
	<polygon clip-path="url(#SVGID_2_)" fill="#010102" points="252.737,146.21 252.737,132.696 254.813,132.696 259.997,140.716 
		265.15,132.696 267.227,132.696 267.227,146.21 264.823,146.21 264.823,136.915 260.095,144.583 259.595,144.583 254.813,137.136 
		254.813,146.21 	"/>
</g>
</svg>
