<?xml version="1.0" encoding="utf-8"?>
<!-- Generator: Adobe Illustrator 16.0.2, SVG Export Plug-In . SVG Version: 6.00 Build 0)  -->
<!DOCTYPE svg PUBLIC "-//W3C//DTD SVG 1.1//EN" "http://www.w3.org/Graphics/SVG/1.1/DTD/svg11.dtd">
<svg version="1.1" id="Layer_1" xmlns="http://www.w3.org/2000/svg" xmlns:xlink="http://www.w3.org/1999/xlink" x="0px" y="0px"
	 width="180px" height="180px" viewBox="0 0 180 180" enable-background="new 0 0 180 180" xml:space="preserve">
<g>
	<g>
		<g>
			<path d="M69.01,120.08l-5.014,5.76c0,0-0.233-0.473-0.667-0.945c-0.34-0.371-0.832-0.732-1.238-0.938
				c-2.827-1.483-6.291-2.224-10.391-2.224c-1.797,0-3.406,0.156-4.823,0.467c-1.035,0.24-1.898,0.601-2.583,1.08
				c-0.69,0.479-1.073,1.002-1.155,1.565c-0.134,0.925,0.566,1.555,2.107,1.89c0.792,0.168,2.523,0.348,5.19,0.539l3.976,0.288
				c2.363,0.181,4.258,0.427,5.688,0.737c1.429,0.311,2.675,0.749,3.736,1.31c1.074,0.589,1.879,1.36,2.415,2.318
				s0.723,1.981,0.566,3.071c-0.25,1.724-1.267,3.257-3.047,4.598c-1.612,1.222-3.977,2.127-7.079,2.713
				c-2.32,0.442-4.77,0.664-7.348,0.664c-4.63,0-9.085-0.775-13.372-2.323c-0.912-0.31-1.492-0.349-1.679-0.362
				c-1.168-0.093-1.781,0.022-1.781,0.022l4.665-6.004c0,0,0.17,0.492,0.521,0.977c0.291,0.404,0.735,0.789,1.041,0.997
				c1.011,0.694,2.641,1.292,4.892,1.794c2.25,0.503,4.421,0.753,6.508,0.753c2.272,0,4.251-0.269,5.938-0.809
				c0.933-0.299,1.699-0.698,2.301-1.195c0.601-0.499,0.941-1.017,1.021-1.558c0.118-0.813-0.426-1.395-1.622-1.743
				c-0.837-0.239-2.564-0.461-5.183-0.665l-3.911-0.288c-2.621-0.191-4.468-0.374-5.536-0.548c-1.069-0.173-2.124-0.452-3.162-0.837
				c-1.48-0.54-2.581-1.349-3.313-2.428c-0.665-0.971-0.905-2.088-0.722-3.346c0.3-2.074,1.563-3.789,3.79-5.145
				c2.918-1.785,7.038-2.68,12.356-2.68c2.239,0,4.3,0.158,6.186,0.476c1.884,0.316,4.189,0.942,6.972,1.75
				c0.613,0.177,1.565,0.248,1.784,0.269C68.05,120.172,69.01,120.08,69.01,120.08z"/>
			<path d="M86.335,130.242c-1.285-0.985-3.121-1.75-3.121-1.75h8.577c1.73,0,2.963-0.035,3.688-0.106
				c0.727-0.073,1.402-0.223,2.03-0.451c1.364-0.492,2.139-1.379,2.326-2.663c0.186-1.284-0.332-2.172-1.555-2.662
				c-0.578-0.239-1.206-0.394-1.886-0.459c-0.68-0.066-1.906-0.1-3.67-0.1H82.259l-0.934,6.441l-0.583,4.02l-1.042,7.189
				c-0.052,0.36-0.12,1.069,0.247,1.816c0.247,0.501,0.983,1.009,0.983,1.009H69.996c0.302-0.136,0.92-0.561,1.366-1.191
				c0.516-0.729,0.631-1.273,0.684-1.632l2.688-18.553c0.054-0.37-0.092-1.185-0.274-1.822c-0.126-0.445-0.914-1.296-0.914-1.296
				h20.597c2.666,0,4.763,0.107,6.292,0.322c1.532,0.216,2.84,0.593,3.922,1.13c1.258,0.622,2.144,1.463,2.656,2.527
				c0.484,1.028,0.641,2.128,0.47,3.298c-0.578,3.994-4.089,6.329-10.529,7.01l5.794,6.774c1.02,1.187,1.258,1.467,2.162,2.149
				c1.129,0.854,1.991,1.283,1.991,1.283H94.34c0,0,0.635-0.527,0.852-1.191c0.164-0.501,0.08-1.041-0.594-1.869l-5.822-6.954
				C88.775,132.512,87.439,131.088,86.335,130.242z"/>
			<path d="M111.457,139.648l2.694-18.588c0.053-0.37,0.088-1.187-0.17-1.756c-0.41-0.899-1.032-1.272-1.032-1.272h17.663
				c4.264,0,7.493,0.341,9.684,1.021c3.131,0.994,5.315,2.633,6.555,4.918c0.986,1.794,1.306,3.895,0.958,6.299
				c-0.614,4.223-2.933,7.441-6.956,9.653c-1.689,0.935-3.604,1.601-5.742,2.001c-2.14,0.401-4.824,0.602-8.049,0.602h-17.663
				c0,0,0.866-0.559,1.368-1.191C111.323,140.628,111.402,140.02,111.457,139.648z M119.277,138.508h7.717
				c3.043,0,5.37-0.293,6.987-0.882c3.463-1.258,5.461-3.71,5.99-7.355c0.382-2.638-0.213-4.658-1.773-6.062
				c-0.875-0.78-1.984-1.334-3.329-1.663c-1.349-0.33-3.179-0.495-5.489-0.495h-7.719L119.277,138.508z"/>
		</g>
		<g>
			<path fill="#EB5D13" enable-background="new    " d="M102.824,14.679c-2.623-3.598-6.869-5.936-11.662-5.936
				c-4.791,0-9.038,2.336-11.661,5.936l-0.077,0.118l-49.581,73.12l-0.256,0.475c-1.47,1.994-2.338,4.455-2.338,7.123
				c0,6.638,5.382,12.023,12.021,12.023l0.708-0.004h102.42l0.721,0.004c6.638,0,12.023-5.386,12.023-12.023
				c0-2.668-0.868-5.129-2.338-7.123l-0.271-0.396l-49.634-73.197L102.824,14.679z"/>
			<path d="M78.47,13.927l-0.112,0.169L28.752,87.255l-0.288,0.53l0.096-0.15c-1.693,2.296-2.587,5.021-2.587,7.88
				c0,7.333,5.965,13.299,13.298,13.299l0.714-0.004h102.415l0.716,0.004c7.339,0,13.305-5.966,13.305-13.299
				c0-2.859-0.895-5.584-2.587-7.88l-49.875-73.553l-0.082-0.126l-0.021-0.028c-2.949-4.044-7.694-6.46-12.692-6.46
				C86.162,7.467,81.417,9.883,78.47,13.927z M80.479,15.513l0.088-0.134c2.435-3.338,6.408-5.361,10.595-5.361
				c4.184,0,8.152,2.021,10.624,5.403c0.021,0.035,0.045,0.07,0.045,0.07l49.92,73.619c1.395,1.892,2.117,4.094,2.117,6.404
				c0,5.927-4.82,10.748-10.748,10.748l-0.713-0.004H39.979l-0.715,0.004c-5.919,0-10.74-4.821-10.74-10.748
				c0-2.311,0.722-4.513,2.089-6.366l0.053-0.071c0,0,0.222-0.409,0.269-0.497C31.006,88.475,80.479,15.513,80.479,15.513z"/>
		</g>
		<path d="M155.075,94.286L96.008,71.151V51.808c0-2.535-2.057-4.592-4.594-4.592h-0.535c-2.536,0-4.592,2.057-4.592,4.592v19.304
			L27.421,93.486c-0.111,0.659-0.172,1.337-0.172,2.028c0,0.793,0.081,1.567,0.228,2.317l58.81-22.353v7.063
			c-3.139,1.738-5.265,5.082-5.265,8.923c0,5.632,4.567,10.198,10.201,10.198c5.633,0,10.198-4.566,10.198-10.198
			c0-3.902-2.194-7.29-5.413-9.005v-6.925l58.737,23.005c0.251-0.969,0.398-1.979,0.398-3.025
			C155.144,95.099,155.116,94.69,155.075,94.286z"/>
	</g>
	<g>
		<path d="M60.651,167.378c-0.088-0.172-0.206-0.313-0.354-0.426c-0.148-0.112-0.318-0.193-0.51-0.246
			c-0.192-0.052-0.396-0.078-0.612-0.078c-0.168,0-0.338,0.019-0.51,0.055c-0.172,0.035-0.33,0.096-0.474,0.18
			c-0.144,0.084-0.26,0.194-0.348,0.33c-0.088,0.136-0.132,0.304-0.132,0.504c0,0.168,0.042,0.311,0.126,0.426
			c0.084,0.116,0.19,0.214,0.318,0.294s0.268,0.146,0.42,0.198s0.292,0.094,0.42,0.126l1.008,0.228
			c0.216,0.032,0.43,0.091,0.642,0.175s0.4,0.193,0.564,0.33c0.164,0.136,0.298,0.304,0.402,0.504
			c0.104,0.2,0.156,0.436,0.156,0.708c0,0.336-0.076,0.622-0.228,0.857c-0.152,0.236-0.346,0.429-0.582,0.576
			c-0.236,0.148-0.502,0.254-0.798,0.318c-0.296,0.063-0.588,0.096-0.876,0.096c-0.728,0-1.318-0.172-1.77-0.516
			c-0.452-0.344-0.71-0.896-0.774-1.656h0.756c0.032,0.512,0.218,0.898,0.558,1.158c0.34,0.26,0.762,0.39,1.266,0.39
			c0.184,0,0.374-0.02,0.57-0.06c0.196-0.04,0.378-0.108,0.546-0.204c0.168-0.097,0.306-0.218,0.414-0.366s0.162-0.33,0.162-0.546
			c0-0.185-0.038-0.338-0.114-0.462c-0.076-0.124-0.178-0.229-0.306-0.313c-0.128-0.084-0.274-0.153-0.438-0.21
			c-0.164-0.056-0.33-0.104-0.498-0.144l-0.972-0.216c-0.248-0.064-0.476-0.139-0.684-0.223s-0.39-0.188-0.546-0.312
			c-0.156-0.124-0.278-0.276-0.366-0.456c-0.088-0.181-0.132-0.402-0.132-0.666c0-0.313,0.07-0.58,0.21-0.804
			c0.14-0.225,0.322-0.404,0.546-0.54c0.224-0.137,0.474-0.236,0.75-0.301c0.276-0.063,0.55-0.096,0.822-0.096
			c0.312,0,0.602,0.04,0.87,0.12c0.268,0.08,0.504,0.204,0.708,0.372s0.366,0.376,0.486,0.624s0.188,0.54,0.204,0.876h-0.756
			C60.787,167.752,60.739,167.551,60.651,167.378z"/>
		<path d="M63.603,163.796v3.444h0.024c0.144-0.376,0.4-0.678,0.768-0.906c0.368-0.228,0.772-0.342,1.212-0.342
			c0.432,0,0.794,0.056,1.086,0.168c0.292,0.112,0.526,0.271,0.702,0.474c0.176,0.204,0.3,0.455,0.372,0.75
			c0.072,0.297,0.108,0.629,0.108,0.996v3.984h-0.756V168.5c0-0.264-0.024-0.51-0.072-0.737c-0.048-0.229-0.132-0.427-0.252-0.595
			c-0.12-0.168-0.282-0.3-0.486-0.396c-0.204-0.097-0.458-0.145-0.762-0.145c-0.304,0-0.574,0.055-0.81,0.162
			c-0.236,0.108-0.436,0.256-0.6,0.444c-0.164,0.188-0.292,0.412-0.384,0.672c-0.092,0.26-0.142,0.542-0.15,0.846v3.612h-0.756
			v-8.568H63.603z"/>
		<path d="M70.07,163.796v1.212h-0.756v-1.212H70.07z M70.07,166.172v6.192h-0.756v-6.192H70.07z"/>
		<path d="M72.218,166.172v1.044h0.036c0.2-0.384,0.462-0.684,0.786-0.899c0.324-0.216,0.738-0.324,1.242-0.324
			c0.408,0,0.778,0.101,1.11,0.3c0.332,0.2,0.554,0.504,0.666,0.912c0.184-0.408,0.456-0.712,0.816-0.912
			c0.36-0.199,0.744-0.3,1.152-0.3c1.368,0,2.052,0.725,2.052,2.172v4.2h-0.756V168.2c0-0.512-0.108-0.901-0.324-1.17
			c-0.216-0.268-0.596-0.402-1.14-0.402c-0.328,0-0.6,0.063-0.816,0.187c-0.216,0.124-0.388,0.29-0.516,0.498
			c-0.128,0.208-0.218,0.446-0.27,0.714c-0.052,0.268-0.078,0.546-0.078,0.834v3.504h-0.756v-4.2c0-0.208-0.022-0.405-0.066-0.594
			c-0.044-0.188-0.116-0.352-0.216-0.492c-0.1-0.14-0.234-0.25-0.402-0.33s-0.372-0.12-0.612-0.12c-0.32,0-0.598,0.059-0.834,0.175
			c-0.236,0.115-0.428,0.275-0.576,0.479s-0.258,0.444-0.33,0.72c-0.072,0.276-0.108,0.578-0.108,0.906v3.456h-0.756v-6.192H72.218z
			"/>
		<path d="M81.674,167.132c0.128-0.264,0.302-0.479,0.522-0.647s0.478-0.292,0.774-0.372s0.624-0.12,0.984-0.12
			c0.272,0,0.544,0.026,0.816,0.078c0.271,0.052,0.516,0.15,0.732,0.294c0.216,0.144,0.392,0.346,0.528,0.606
			c0.136,0.26,0.204,0.598,0.204,1.014v3.288c0,0.304,0.148,0.456,0.444,0.456c0.088,0,0.168-0.017,0.24-0.048v0.636
			c-0.088,0.016-0.166,0.028-0.234,0.036c-0.068,0.008-0.154,0.012-0.258,0.012c-0.192,0-0.346-0.025-0.462-0.078
			c-0.116-0.052-0.206-0.126-0.27-0.222c-0.064-0.097-0.106-0.21-0.126-0.342c-0.02-0.133-0.03-0.278-0.03-0.438h-0.024
			c-0.136,0.2-0.274,0.378-0.414,0.534c-0.14,0.156-0.296,0.286-0.468,0.39c-0.172,0.104-0.368,0.185-0.588,0.24
			c-0.22,0.056-0.482,0.084-0.786,0.084c-0.288,0-0.558-0.034-0.81-0.102c-0.252-0.068-0.472-0.177-0.66-0.324
			c-0.188-0.148-0.336-0.336-0.444-0.564c-0.108-0.228-0.162-0.498-0.162-0.81c0-0.433,0.096-0.771,0.288-1.015
			c0.192-0.243,0.446-0.43,0.762-0.558c0.316-0.128,0.672-0.218,1.068-0.27c0.396-0.053,0.798-0.103,1.206-0.15
			c0.16-0.016,0.3-0.036,0.42-0.06c0.12-0.024,0.22-0.066,0.3-0.126c0.08-0.061,0.142-0.143,0.186-0.246
			c0.044-0.104,0.066-0.24,0.066-0.408c0-0.256-0.042-0.466-0.126-0.63s-0.2-0.294-0.348-0.391c-0.148-0.096-0.32-0.162-0.516-0.197
			c-0.196-0.036-0.406-0.055-0.63-0.055c-0.48,0-0.872,0.114-1.176,0.343c-0.304,0.228-0.464,0.594-0.48,1.098h-0.756
			C81.47,167.708,81.546,167.396,81.674,167.132z M85.454,168.98c-0.048,0.088-0.14,0.151-0.276,0.191s-0.256,0.068-0.36,0.084
			c-0.32,0.057-0.65,0.106-0.99,0.15c-0.34,0.044-0.65,0.11-0.93,0.198c-0.28,0.088-0.51,0.214-0.69,0.378
			c-0.18,0.164-0.27,0.397-0.27,0.702c0,0.191,0.038,0.361,0.114,0.51s0.178,0.276,0.306,0.384c0.128,0.108,0.276,0.19,0.444,0.246
			s0.34,0.084,0.516,0.084c0.288,0,0.564-0.044,0.828-0.132c0.264-0.088,0.494-0.216,0.69-0.384
			c0.196-0.168,0.352-0.372,0.468-0.612c0.116-0.24,0.174-0.512,0.174-0.816v-0.983H85.454z"/>
		<path d="M88.49,166.172v1.068h0.024c0.144-0.376,0.4-0.678,0.768-0.906c0.368-0.228,0.772-0.342,1.212-0.342
			c0.432,0,0.794,0.056,1.086,0.168s0.526,0.271,0.702,0.474c0.176,0.204,0.3,0.455,0.372,0.75c0.072,0.297,0.107,0.629,0.107,0.996
			v3.984h-0.756V168.5c0-0.264-0.023-0.51-0.071-0.737c-0.048-0.229-0.132-0.427-0.253-0.595c-0.119-0.168-0.281-0.3-0.485-0.396
			c-0.204-0.097-0.458-0.145-0.762-0.145s-0.574,0.055-0.81,0.162c-0.236,0.108-0.437,0.256-0.601,0.444
			c-0.164,0.188-0.292,0.412-0.384,0.672c-0.092,0.26-0.143,0.542-0.15,0.846v3.612h-0.756v-6.192H88.49z"/>
		<path d="M98.061,166.256c0.364,0.177,0.67,0.412,0.918,0.708c0.248,0.297,0.436,0.643,0.563,1.038
			c0.128,0.396,0.192,0.818,0.192,1.267s-0.064,0.87-0.192,1.266c-0.128,0.396-0.315,0.742-0.563,1.038s-0.554,0.53-0.918,0.702
			s-0.782,0.258-1.254,0.258c-0.473,0-0.891-0.086-1.254-0.258c-0.365-0.172-0.67-0.406-0.918-0.702s-0.437-0.642-0.564-1.038
			c-0.128-0.396-0.191-0.817-0.191-1.266s0.063-0.87,0.191-1.267c0.128-0.396,0.316-0.741,0.564-1.038
			c0.248-0.296,0.553-0.531,0.918-0.708c0.363-0.176,0.781-0.264,1.254-0.264C97.278,165.992,97.696,166.08,98.061,166.256z
			 M95.858,166.856c-0.272,0.152-0.498,0.352-0.679,0.6c-0.18,0.248-0.315,0.53-0.408,0.847c-0.092,0.315-0.137,0.638-0.137,0.966
			s0.045,0.649,0.137,0.966c0.093,0.316,0.229,0.598,0.408,0.846c0.181,0.248,0.406,0.448,0.679,0.601
			c0.271,0.151,0.588,0.228,0.948,0.228c0.359,0,0.676-0.076,0.948-0.228c0.271-0.152,0.498-0.353,0.678-0.601
			s0.315-0.529,0.408-0.846c0.092-0.316,0.138-0.638,0.138-0.966s-0.046-0.65-0.138-0.966c-0.093-0.316-0.229-0.599-0.408-0.847
			s-0.406-0.447-0.678-0.6c-0.272-0.152-0.589-0.229-0.948-0.229C96.446,166.628,96.13,166.704,95.858,166.856z"/>
		<path d="M101.307,171.092h1.008v1.272h-1.008V171.092z"/>
		<path d="M107.99,167.024c-0.28-0.264-0.672-0.396-1.176-0.396c-0.36,0-0.676,0.076-0.948,0.229
			c-0.271,0.152-0.497,0.352-0.678,0.6s-0.316,0.53-0.408,0.847c-0.092,0.315-0.138,0.638-0.138,0.966s0.046,0.649,0.138,0.966
			s0.228,0.598,0.408,0.846s0.406,0.448,0.678,0.601c0.272,0.151,0.588,0.228,0.948,0.228c0.232,0,0.452-0.044,0.66-0.132
			s0.392-0.21,0.552-0.366s0.292-0.342,0.396-0.558c0.104-0.216,0.168-0.452,0.191-0.708h0.756c-0.104,0.752-0.38,1.338-0.827,1.758
			c-0.448,0.42-1.024,0.63-1.729,0.63c-0.472,0-0.89-0.086-1.254-0.258s-0.67-0.406-0.918-0.702s-0.437-0.642-0.564-1.038
			c-0.128-0.396-0.191-0.817-0.191-1.266s0.063-0.87,0.191-1.267c0.128-0.396,0.316-0.741,0.564-1.038
			c0.248-0.296,0.554-0.531,0.918-0.708c0.364-0.176,0.782-0.264,1.254-0.264c0.664,0,1.226,0.176,1.687,0.528
			c0.46,0.352,0.733,0.884,0.821,1.596h-0.756C108.463,167.652,108.271,167.288,107.99,167.024z"/>
		<path d="M114.296,166.256c0.364,0.177,0.67,0.412,0.918,0.708c0.248,0.297,0.437,0.643,0.564,1.038
			c0.128,0.396,0.191,0.818,0.191,1.267s-0.063,0.87-0.191,1.266c-0.128,0.396-0.316,0.742-0.564,1.038s-0.554,0.53-0.918,0.702
			s-0.782,0.258-1.254,0.258s-0.89-0.086-1.254-0.258s-0.67-0.406-0.918-0.702s-0.437-0.642-0.564-1.038
			c-0.128-0.396-0.191-0.817-0.191-1.266s0.063-0.87,0.191-1.267c0.128-0.396,0.316-0.741,0.564-1.038
			c0.248-0.296,0.554-0.531,0.918-0.708c0.364-0.176,0.782-0.264,1.254-0.264S113.932,166.08,114.296,166.256z M112.094,166.856
			c-0.271,0.152-0.498,0.352-0.678,0.6s-0.316,0.53-0.408,0.847c-0.092,0.315-0.138,0.638-0.138,0.966s0.046,0.649,0.138,0.966
			s0.229,0.598,0.408,0.846s0.406,0.448,0.678,0.601c0.272,0.151,0.588,0.228,0.948,0.228s0.676-0.076,0.948-0.228
			c0.271-0.152,0.498-0.353,0.678-0.601s0.316-0.529,0.408-0.846s0.138-0.638,0.138-0.966s-0.046-0.65-0.138-0.966
			c-0.092-0.316-0.229-0.599-0.408-0.847s-0.406-0.447-0.678-0.6c-0.272-0.152-0.588-0.229-0.948-0.229
			S112.366,166.704,112.094,166.856z"/>
		<path d="M117.794,166.172v1.044h0.036c0.2-0.384,0.462-0.684,0.786-0.899c0.323-0.216,0.737-0.324,1.242-0.324
			c0.407,0,0.777,0.101,1.109,0.3c0.332,0.2,0.554,0.504,0.666,0.912c0.184-0.408,0.456-0.712,0.816-0.912
			c0.359-0.199,0.744-0.3,1.151-0.3c1.368,0,2.053,0.725,2.053,2.172v4.2h-0.757V168.2c0-0.512-0.107-0.901-0.323-1.17
			c-0.216-0.268-0.597-0.402-1.141-0.402c-0.328,0-0.6,0.063-0.815,0.187s-0.389,0.29-0.517,0.498s-0.218,0.446-0.27,0.714
			s-0.078,0.546-0.078,0.834v3.504h-0.756v-4.2c0-0.208-0.022-0.405-0.066-0.594c-0.044-0.188-0.116-0.352-0.216-0.492
			c-0.1-0.14-0.234-0.25-0.402-0.33s-0.371-0.12-0.611-0.12c-0.32,0-0.599,0.059-0.834,0.175c-0.236,0.115-0.429,0.275-0.576,0.479
			c-0.148,0.204-0.258,0.444-0.33,0.72c-0.072,0.276-0.108,0.578-0.108,0.906v3.456h-0.756v-6.192H117.794z"/>
	</g>
</g>
</svg>
