<?xml version="1.0" encoding="utf-8"?>
<!-- Generator: Adobe Illustrator 16.0.2, SVG Export Plug-In . SVG Version: 6.00 Build 0)  -->
<!DOCTYPE svg PUBLIC "-//W3C//DTD SVG 1.1//EN" "http://www.w3.org/Graphics/SVG/1.1/DTD/svg11.dtd">
<svg version="1.1" id="Layer_1" xmlns="http://www.w3.org/2000/svg" xmlns:xlink="http://www.w3.org/1999/xlink" x="0px" y="0px"
	 width="350px" height="50px" viewBox="0 0 350 50" enable-background="new 0 0 350 50" xml:space="preserve">
<g>
	<defs>
		<rect id="SVGID_1_" x="0.588" y="5.508" width="349.93" height="43.743"/>
	</defs>
	<clipPath id="SVGID_2_">
		<use xlink:href="#SVGID_1_"  overflow="visible"/>
	</clipPath>
	<path clip-path="url(#SVGID_2_)" d="M12.598,34.306c-4.671,0-7.618-0.993-8.675-1.414c-0.668-0.839-1.39-3.55-1.5-5.343
		c0.276-0.27,1.111-0.344,1.333-0.116c0.834,1.948,3.112,5.689,9.563,5.689c4.672,0,6.95-2.101,6.95-4.391
		c0-1.681-0.496-3.55-4.559-5.346l-5.28-2.369c-2.78-1.258-6.005-3.434-6.005-6.567c0-3.627,4.113-6.567,11.342-6.567
		c1.726,0,3.727,0.193,5.17,0.499c0.725,0.111,1.503,0.228,1.949,0.228c0.502,0.916,0.998,3.056,0.998,4.659
		c-0.22,0.227-1.111,0.343-1.387,0.111c-0.722-1.831-2.228-4.311-7.564-4.311c-5.447,0-6.617,2.48-6.617,4.237
		c0,2.213,2.67,3.779,4.725,4.695l4.452,1.911c3.501,1.487,6.946,3.701,6.946,7.332C24.439,31.442,19.827,34.306,12.598,34.306"/>
	<path clip-path="url(#SVGID_2_)" d="M60.266,18.078c0-2.367-0.113-6.756-1.058-7.903c-0.389-0.459-1.39-0.726-2.776-0.803
		l-1.393-0.074c-0.333-0.27-0.22-0.766,0.113-0.919c2.112,0.077,4.17,0.116,6.338,0.116c2.337,0,3.837-0.039,5.839-0.116
		c0.442,0.193,0.389,0.688,0.113,0.919l-1.336,0.074c-1.387,0.077-2.504,0.42-2.78,0.919c-0.835,1.26-0.778,5.65-0.778,7.787v4.315
		c0,3.321-0.778,6.833-3.894,9.124c-2.391,1.796-6.504,2.789-10.62,2.789c-3.837,0-7.671-0.499-10.398-2.102
		c-2.949-1.681-4.336-4.467-4.336-9.008v-9.012c0-3.971-0.113-4.62-3.338-4.813l-1.393-0.074c-0.329-0.154-0.219-0.803,0.113-0.919
		c2.783,0.077,4.671,0.116,6.896,0.116c2.281,0,4.116-0.039,6.84-0.116c0.333,0.116,0.445,0.766,0.113,0.919l-1.336,0.074
		c-3.222,0.193-3.335,0.842-3.335,4.813v8.247c0,6.147,2.78,10.194,11.286,10.194c8.063,0,11.123-4.354,11.123-10.154V18.078z"/>
	<path clip-path="url(#SVGID_2_)" d="M79.082,27.967c0,4.011,0.11,4.505,3.667,4.771l1.503,0.116
		c0.336,0.192,0.223,0.842-0.113,0.953c-3.166-0.076-5.004-0.111-7.229-0.111c-2.334,0-4.336,0.035-6.78,0.111
		c-0.336-0.111-0.449-0.725-0.113-0.953l1.167-0.116c3.225-0.305,3.335-0.761,3.335-4.771V13.88c0-3.246-0.11-3.933-2.613-4.087
		l-2.002-0.152c-0.389-0.231-0.33-0.803,0.113-0.957c2.946-0.267,6.395-0.306,11.01-0.306s8.063,0.422,10.677,1.53
		c2.557,1.106,4.449,3.09,4.449,5.726c0,3.514-3.172,5.269-5.56,6.072c-2.45,0.803-5.396,1.144-7.677,1.144
		c-0.389-0.113-0.389-0.686-0.053-0.762c6.005-0.764,8.173-3.094,8.173-6.416c0-3.704-3.169-6.107-8.951-6.107
		c-2.949,0-3.002,0.151-3.002,1.376V27.967z"/>
	<path clip-path="url(#SVGID_2_)" d="M104.341,14.222c0-3.971-0.11-4.543-3.388-4.81l-0.891-0.077
		c-0.333-0.154-0.223-0.842,0.11-0.954c2.391,0.077,4.282,0.111,6.56,0.111h10.454c3.561,0,6.84,0,7.508-0.111
		c0.335,0.648,0.665,3.395,0.891,5.075c-0.226,0.232-1.114,0.306-1.393,0.077c-0.835-1.792-1.337-3.128-4.223-3.627
		c-1.17-0.188-2.949-0.228-5.396-0.228h-4.003c-1.669,0-1.669,0.077-1.669,1.526v7.637c0,1.07,0.167,1.07,1.839,1.07h3.222
		c2.334,0,4.06-0.077,4.725-0.232c0.668-0.15,1.057-0.378,1.336-1.333l0.442-1.567c0.282-0.228,1.227-0.228,1.446,0.039
		c0,0.918-0.22,2.407-0.22,3.854c0,1.376,0.22,2.827,0.22,3.666c-0.22,0.27-1.164,0.27-1.446,0.038l-0.496-1.487
		c-0.226-0.688-0.615-1.258-1.726-1.451c-0.778-0.152-2.115-0.19-4.283-0.19h-3.222c-1.672,0-1.839,0.038-1.839,1.031v5.383
		c0,2.023,0.167,3.32,1.058,3.97c0.668,0.46,1.835,0.88,6.727,0.88c4.283,0,5.896-0.153,7.119-0.574
		c1.001-0.379,2.503-1.716,3.95-3.701c0.389-0.193,1.167-0.078,1.387,0.266c-0.389,1.337-1.779,4.277-2.5,5.31
		c-5.004-0.079-9.956-0.116-14.903-0.116h-5.004c-2.391,0-4.279,0.037-7.561,0.116c-0.333-0.116-0.446-0.727-0.11-0.956l1.832-0.114
		c3.172-0.193,3.448-0.766,3.448-4.775V14.222z"/>
	<path clip-path="url(#SVGID_2_)" d="M136.121,14.258c0-3.627-0.169-4.275-2.451-4.465l-1.776-0.154
		c-0.392-0.189-0.392-0.8,0.054-0.955c3.115-0.19,6.949-0.304,12.399-0.304c3.448,0,6.727,0.193,9.287,1.146
		c2.67,0.954,4.615,2.673,4.615,5.343c0,3.63-4.169,5.616-6.95,6.377c-0.279,0.23,0,0.61,0.276,0.919
		c4.449,4.923,7.395,7.977,11.179,10.154c0.948,0.573,2.334,0.993,3.834,1.07c0.279,0.073,0.336,0.38,0.06,0.533
		c-0.502,0.116-1.393,0.19-2.45,0.19c-4.725,0-7.562-0.954-11.511-4.81c-1.44-1.414-3.721-4.048-5.447-5.767
		c-0.834-0.839-1.723-1.221-3.95-1.221c-2.5,0-2.61,0.038-2.61,0.838v4.812c0,4.011,0.11,4.467,3.335,4.771l1.167,0.116
		c0.335,0.192,0.223,0.842-0.113,0.953c-2.497-0.076-4.389-0.111-6.614-0.111c-2.334,0-4.336,0.035-6.953,0.111
		c-0.333-0.111-0.442-0.687-0.11-0.953l1.39-0.116c3.225-0.266,3.338-0.761,3.338-4.771V14.258z M140.68,19.721
		c0,0.687,0,1.109,0.166,1.26c0.167,0.116,1.001,0.189,3.837,0.189c1.999,0,4.113-0.15,5.726-0.99c1.503-0.803,2.78-2.14,2.78-4.736
		c0-3.017-2.724-5.88-8.895-5.88c-3.448,0-3.614,0.152-3.614,1.222V19.721z"/>
	<path clip-path="url(#SVGID_2_)" d="M169.72,12.542c-1.28-2.137-2.115-2.94-4.505-3.129l-0.998-0.077
		c-0.392-0.23-0.335-0.764,0.11-0.954c1.613,0.074,3.392,0.113,5.783,0.113c2.447,0,4.393-0.039,6.727-0.113
		c0.389,0.15,0.502,0.723,0.113,0.954l-0.835,0.077c-2.111,0.189-2.557,0.418-2.613,0.723c0.11,0.383,1.057,2.445,2.78,5.346
		c2.56,4.43,5.116,8.819,7.896,13.172c1.723-2.52,4.116-6.452,5.34-8.476c1.666-2.595,4.224-6.91,5.168-8.553
		c0.448-0.803,0.502-1.221,0.502-1.49c0-0.267-0.556-0.571-2.504-0.723l-0.998-0.077c-0.392-0.23-0.279-0.803,0.11-0.954
		c1.556,0.074,3.667,0.113,5.782,0.113c1.835,0,3.561-0.039,5.394-0.113c0.389,0.15,0.389,0.761,0.112,0.954l-1.669,0.077
		c-1.333,0.074-2.171,0.533-2.89,1.333c-1.56,1.796-3.728,4.89-6.231,8.785l-3.002,4.694c-2.225,3.514-4.835,7.944-5.782,9.966
		c-0.163,0.077-0.39,0.115-0.612,0.115c-0.279,0-0.556-0.038-0.831-0.115c-0.615-1.603-1.56-3.474-2.561-5.076L169.72,12.542z"/>
	<path clip-path="url(#SVGID_2_)" d="M208.157,14.299c0-4.049-0.112-4.697-3.392-4.886l-1.387-0.077
		c-0.336-0.155-0.226-0.842,0.106-0.955c2.78,0.077,4.672,0.113,7.01,0.113c2.221,0,4.113-0.036,6.893-0.113
		c0.336,0.113,0.446,0.8,0.113,0.955l-1.39,0.077c-3.282,0.189-3.396,0.837-3.396,4.886v13.594c0,4.044,0.113,4.58,3.396,4.847
		l1.39,0.116c0.333,0.15,0.223,0.84-0.113,0.954c-2.779-0.077-4.672-0.114-6.893-0.114c-2.338,0-4.229,0.037-7.01,0.114
		c-0.332-0.114-0.442-0.727-0.106-0.954l1.387-0.116c3.279-0.267,3.392-0.803,3.392-4.847V14.299z"/>
	<path clip-path="url(#SVGID_2_)" d="M231.592,34.306c-4.672,0-7.618-0.993-8.676-1.414c-0.668-0.839-1.393-3.55-1.503-5.343
		c0.279-0.27,1.114-0.344,1.337-0.116c0.834,1.948,3.112,5.689,9.563,5.689c4.672,0,6.95-2.101,6.95-4.391
		c0-1.681-0.499-3.55-4.559-5.346l-5.28-2.369c-2.78-1.258-6.006-3.434-6.006-6.567c0-3.627,4.113-6.567,11.339-6.567
		c1.726,0,3.728,0.193,5.174,0.499c0.722,0.111,1.503,0.228,1.948,0.228c0.499,0.916,0.998,3.056,0.998,4.659
		c-0.223,0.227-1.11,0.343-1.387,0.111c-0.725-1.831-2.228-4.311-7.564-4.311c-5.45,0-6.617,2.48-6.617,4.237
		c0,2.213,2.67,3.779,4.726,4.695l4.448,1.911c3.502,1.487,6.953,3.701,6.953,7.332C243.436,31.442,238.82,34.306,231.592,34.306"/>
	<path clip-path="url(#SVGID_2_)" d="M252.734,14.299c0-4.049-0.112-4.697-3.392-4.886l-1.393-0.077
		c-0.329-0.155-0.22-0.842,0.113-0.955c2.782,0.077,4.671,0.113,7.006,0.113c2.225,0,4.116-0.036,6.896-0.113
		c0.333,0.113,0.443,0.8,0.113,0.955l-1.393,0.077c-3.279,0.189-3.392,0.837-3.392,4.886v13.594c0,4.044,0.112,4.58,3.392,4.847
		l1.393,0.116c0.33,0.15,0.22,0.84-0.113,0.954c-2.779-0.077-4.671-0.114-6.896-0.114c-2.335,0-4.224,0.037-7.006,0.114
		c-0.333-0.114-0.442-0.727-0.113-0.954l1.393-0.116c3.279-0.267,3.392-0.803,3.392-4.847V14.299z"/>
</g>
<g>
	<defs>
		<rect id="SVGID_3_" x="1.912" y="7.886" width="347.304" height="41.365"/>
	</defs>
	<clipPath id="SVGID_4_">
		<use xlink:href="#SVGID_3_"  overflow="visible"/>
	</clipPath>
	<path clip-path="url(#SVGID_4_)" d="M266.267,21.361c0-7.636,8.343-13.479,19.798-13.479c12.845,0,19.295,6.378,19.295,13.096
		c0,7.714-8.564,13.327-19.295,13.327C273.722,34.306,266.267,28.232,266.267,21.361 M299.8,22.165
		c0-6.3-4.063-13.096-14.683-13.096c-5.779,0-13.287,2.708-13.287,11.072c0,5.65,4.003,12.981,14.959,12.981
		C293.459,33.122,299.8,29.686,299.8,22.165"/>
	<path clip-path="url(#SVGID_4_)" d="M344.252,27.203c0,1.146,0,5.69,0.166,6.684c-0.112,0.228-0.445,0.417-1.057,0.417
		c-0.669-0.648-2.278-1.984-7.119-5.764l-12.898-10.078c-1.503-1.186-5.283-4.315-6.453-5.158h-0.11
		c-0.223,0.459-0.279,1.336-0.279,2.485v8.32c0,1.796,0.113,6.759,1.001,7.904c0.393,0.42,1.449,0.649,2.836,0.726l1.726,0.116
		c0.33,0.305,0.276,0.765-0.112,0.954c-2.501-0.077-4.449-0.116-6.501-0.116c-2.338,0-3.841,0.039-5.789,0.116
		c-0.389-0.189-0.442-0.727-0.106-0.954l1.5-0.116c1.276-0.076,2.168-0.343,2.443-0.761c0.781-1.375,0.726-6.035,0.726-7.869V13.077
		c0-1.07-0.057-1.873-1.228-2.75c-0.774-0.534-2.108-0.803-3.441-0.917l-0.947-0.077c-0.333-0.228-0.333-0.8,0.109-0.954
		c2.338,0.116,5.287,0.116,6.284,0.116c0.892,0,1.836-0.039,2.558-0.116c1.113,1.947,7.73,6.987,9.506,8.4l5.4,4.162
		c3.777,2.977,6.561,5.078,9.171,6.911h0.109c0.226-0.19,0.226-0.801,0.226-1.604v-8.17c0-1.796-0.056-6.76-1.113-7.903
		c-0.333-0.343-1.224-0.576-3.445-0.766l-0.944-0.077c-0.392-0.228-0.335-0.838,0.106-0.954c2.561,0.077,4.449,0.116,6.561,0.116
		c2.391,0,3.841-0.039,5.732-0.116c0.442,0.189,0.442,0.726,0.11,0.954l-0.778,0.077c-1.779,0.19-2.893,0.496-3.112,0.803
		c-0.948,1.373-0.835,6.109-0.835,7.866V27.203z"/>
	
		<line clip-path="url(#SVGID_4_)" fill="none" stroke="#F00000" stroke-width="1.364" x1="1.893" y1="42.43" x2="346.671" y2="42.43"/>
</g>
</svg>
