<?xml version="1.0" encoding="utf-8"?>
<!-- Generator: Adobe Illustrator 16.0.2, SVG Export Plug-In . SVG Version: 6.00 Build 0)  -->
<!DOCTYPE svg PUBLIC "-//W3C//DTD SVG 1.1//EN" "http://www.w3.org/Graphics/SVG/1.1/DTD/svg11.dtd">
<svg version="1.1" id="Layer_1" xmlns="http://www.w3.org/2000/svg" xmlns:xlink="http://www.w3.org/1999/xlink" x="0px" y="0px"
	 width="347px" height="107px" viewBox="0 0 347 107" enable-background="new 0 0 347 107" xml:space="preserve">
<g>
	<g>
		<polyline points="27.843,5.723 44.414,5.715 33.506,49.701 33.674,49.693 60.642,5.707 81.227,5.699 71.01,49.685 71.19,49.685 
			97.888,5.699 113.678,5.69 75.637,62.977 54.791,62.977 64.913,18.999 64.737,18.999 37.953,62.984 16.934,62.993 27.843,5.723 		
			"/>
		<polyline points="128.104,16.395 112.404,16.402 117.023,5.576 132.727,5.568 128.104,16.395 		"/>
		<polyline points="110.934,20.227 126.633,20.219 108.399,62.969 92.696,62.977 110.934,20.227 		"/>
		<path d="M132.497,20.235l14.299-0.008l-3.361,7.878h0.184c5.757-6.15,13.198-8.861,20.351-8.869
			c12.387,0,13.856,8.197,10.073,17.067l-11.375,26.666l-15.699,0.008l8.82-20.679c3.432-8.042,1.618-10.745-2.657-10.745
			c-6.453,0-11.551,4.185-15.47,13.382l-7.707,18.049h-15.695L132.497,20.235"/>
		<polyline fill="#A8A8A8" points="195.872,10.678 177.9,10.678 179.997,5.748 221.952,5.74 219.852,10.662 201.888,10.67 
			179.559,63.025 173.531,63.025 195.872,10.678 		"/>
		<path fill="#A8A8A8" d="M223.741,61.699c-4.468,1.482-9.79,2.301-13.894,2.301c-14.737,0.009-16.24-9.344-10.888-21.907
			c5.458-12.8,16.85-21.916,28.103-21.916c12.555,0,13.64,9.517,8.849,20.761l-1.122,2.621l-30.445,0.008
			c-3.775,8.861-1.76,16.002,7.83,16.002c4.021-0.008,10.523-1.563,13.812-3.128L223.741,61.699z M230.661,39.128
			c3.112-7.305,3.06-14.528-5.139-14.52c-8.12,0-16.343,7.641-19.282,14.528L230.661,39.128"/>
		<path fill="#A8A8A8" d="M279.209,26.721c-2.437-1.228-5.63-2.129-8.591-2.129c-10.732,0.008-19.863,7.313-24.204,17.484
			c-4.063,9.524-1.352,17.477,8.677,17.477c3.489,0,7.035-0.746,10.835-1.893l-1.535,4.841c-4.275,1.229-7.875,1.482-12.06,1.482
			c-14.312,0.008-16.911-10.246-11.937-21.899c5.495-12.89,18.148-21.915,31.325-21.923c5.323,0,8.673,1.146,10.024,1.638
			L279.209,26.721"/>
		<path fill="#A8A8A8" d="M297.578,1.448h5.491l-11.403,26.755h0.18c4.308-4.603,10.757-8.059,17.292-8.059
			c11.949,0,11.985,7.469,7.58,17.804l-10.676,25.027l-5.486,0.008l10.634-24.945c3.083-7.224,4.259-13.464-4.815-13.456
			c-9.771,0.008-16.883,8.706-19.995,16.002l-9.561,22.407h-5.491L297.578,1.448"/>
		<path d="M78.413,84.081h3.178l-0.737,20.99h-3.292l0.287-5.299H67.517l-4.574,5.299h-3.169L78.413,84.081z M78.594,86.898
			l-8.976,10.409h8.398L78.594,86.898"/>
		<path d="M141.907,87.537c-0.971-0.778-2.269-1.171-3.809-1.171c-4.864,0-9.704,3.488-11.871,8.214
			c-2.264,4.922-0.205,8.206,4.168,8.206c1.52,0,3.718-0.385,5.065-1.023l-1.159,2.915c-1.904,0.672-3.91,0.754-5.151,0.754
			c-6.67,0-9.152-4.268-6.081-10.941c2.969-6.47,9.655-10.77,16.084-10.77c1.634,0,3.12,0.237,4.328,0.9L141.907,87.537"/>
		<polyline points="182.781,84.081 185.803,84.081 176.156,105.079 173.138,105.079 182.781,84.081 		"/>
		<polyline points="226.534,84.081 230.637,84.081 232.181,100.984 232.238,100.984 240.006,84.081 243.023,84.081 233.385,105.079 
			229.52,105.079 227.901,87.815 227.844,87.815 219.917,105.079 216.891,105.079 226.534,84.081 		"/>
		<path d="M298.054,87.815c-1.036-0.958-2.416-1.441-5.131-1.441c-4.865,0-9.709,3.521-11.871,8.206
			c-2.261,4.938-0.2,8.206,4.181,8.206c2.08,0,2.715-0.196,3.546-0.353l2.924-6.371h-4.435l1.126-2.465h7.465l-5.016,10.916
			c-1.331,0.386-3.567,0.926-6.859,0.926c-6.67,0-9.151-4.275-6.089-10.949c2.973-6.462,9.656-10.762,16.089-10.762
			c3.083,0,4.233,0.451,5.712,1.049L298.054,87.815"/>
		<path d="M18.744,84.073l5.164,0.008c4.165,0,7.878,0.655,5.573,5.676c-1.175,2.555-3.902,4.364-6.543,4.79l-0.033,0.058
			c0.774,0.353,1.024,0.811,1.089,2.104l0.147,8.354h-3.444l0.11-7.264c0.004-2.064-0.991-2.064-2.596-2.064h-1.806l-4.288,9.328
			H9.101L18.744,84.073z M17.618,93.098h2.571c2.866,0,5.135-1.261,6.061-3.275c0.876-1.9-0.021-3.104-2.801-3.104H20.55
			L17.618,93.098"/>
	</g>
	<path fill="#F6110C" d="M312.77,78.405c3.821,0,7.638,0,11.449,0c1.462,0.287,1.126,0.901,0.496,1.843
		c-1.188,1.785-3.42,4.767-15.941,15.495c18.479-5.364,32.492-14.308,38.43-22.464c-44.887,0-89.77,0-134.661,0
		c-7.883,0-203.458,0-211.344,0l0,0"/>
</g>
</svg>
